<svg width="40" height="41" viewBox="0 0 40 41" fill="none" xmlns="http://www.w3.org/2000/svg">
<path fill-rule="evenodd" clip-rule="evenodd" d="M19.8245 17.9928C20.5667 18.1861 21.2803 18.3552 22.0163 18.4005C22.1453 18.4084 22.262 18.4122 22.373 18.4122C22.6927 18.4122 22.9681 18.3788 23.2148 18.3101C23.6696 18.1833 23.9471 17.9448 24.088 17.5595C24.2806 17.033 24.2306 16.61 23.9306 16.2283C23.7328 15.9766 23.4583 15.7695 23.0406 15.5568C22.4116 15.2366 21.7313 15.0506 21.2089 14.9244C21.0145 14.8774 20.822 14.8328 20.6232 14.7872L19.8245 17.9928ZM18.1051 24.9282C18.4625 25.019 18.8322 25.1129 19.1944 25.1962C19.988 25.3786 20.6427 25.4681 21.255 25.4778C21.2936 25.4784 21.3323 25.4788 21.3708 25.4788C21.8784 25.4788 22.2796 25.4192 22.6334 25.2912C23.4123 25.0094 23.6711 24.1518 23.4642 23.5189C23.3634 23.2106 23.1484 22.9411 22.7875 22.6709C22.217 22.2438 21.5398 21.9873 20.9525 21.7927C20.3216 21.5836 19.6809 21.4359 19.0033 21.2803C18.7913 22.1328 18.5764 22.9914 18.3675 23.8256C18.2831 24.1627 18.1987 24.4997 18.1144 24.8368C18.107 24.8663 18.0998 24.8956 18.0925 24.925C18.0967 24.926 18.1009 24.9271 18.1051 24.9282ZM19.3574 32.9827C19.2025 32.9443 19.0524 32.9071 18.9024 32.8696C18.7693 32.8364 18.6361 32.8029 18.5029 32.7694C18.1663 32.6849 17.8181 32.5974 17.4762 32.5144C17.2396 32.457 17.1153 32.3214 17.0528 32.2178C16.9617 32.067 16.94 31.8929 16.9883 31.7006C17.123 31.1646 17.2589 30.619 17.3903 30.0914C17.4949 29.6716 17.6021 29.2412 17.7097 28.812C17.5181 28.7627 17.3189 28.711 17.1105 28.6565C16.9143 29.4468 16.7153 30.242 16.5218 31.0153L16.3895 31.544C16.3818 31.5751 16.3738 31.6016 16.3655 31.6297C16.3619 31.6415 16.358 31.6547 16.3535 31.6701L16.2015 32.1943L12.9415 31.3848L13.8346 27.7907C12.6099 27.4817 11.3853 27.173 10.1606 26.8643C10.0451 26.8352 9.80633 26.775 9.68077 26.52C9.55528 26.2652 9.65212 26.0416 9.69866 25.9342C9.78065 25.745 9.8627 25.5558 9.94475 25.3667C10.1868 24.8089 10.437 24.2322 10.6803 23.6644C10.7962 23.394 11.0299 23.2326 11.3056 23.2326C11.3716 23.2326 11.4387 23.2418 11.511 23.2608L11.5709 23.2765C12.0111 23.392 12.4663 23.5114 12.9129 23.6129C12.9669 23.6252 13.0224 23.6317 13.0733 23.6317C13.1021 23.6317 13.1283 23.6297 13.1513 23.6256C13.185 23.6197 13.2358 23.6106 13.2671 23.4869C13.6105 22.1317 13.9534 20.7516 14.285 19.417C14.4008 18.9506 14.5167 18.4842 14.6328 18.0179L14.8815 17.0186C15.1311 16.0157 15.3892 14.9786 15.6446 13.9589C15.6951 13.7573 15.6571 13.498 15.3988 13.3751C15.201 13.2811 14.9678 13.2177 14.7209 13.1507L14.6925 13.143C14.4397 13.0742 14.1862 13.016 13.9178 12.9543C13.8174 12.9313 13.7171 12.9082 13.6169 12.8846C13.5444 12.8676 13.3237 12.8156 13.1872 12.5912C13.0993 12.4468 13.075 12.2717 13.1186 12.0982C13.2513 11.5709 13.3833 11.0433 13.5151 10.5158L13.6677 9.90599C13.6756 9.87445 13.6841 9.84913 13.6909 9.82879C13.6932 9.8218 13.696 9.81341 13.6995 9.80281L13.8624 9.29769L18.1781 10.378L18.2626 10.0385C18.4712 9.20064 18.6869 8.33423 18.8963 7.48188C18.9916 7.09434 19.2871 6.95626 19.532 6.95626C19.5953 6.95626 19.6601 6.96497 19.7303 6.98286C20.199 7.10249 20.6774 7.22087 21.1401 7.33535C21.3199 7.37985 21.4997 7.42433 21.6795 7.469C21.783 7.49473 21.9984 7.54829 22.1314 7.76954C22.2647 7.99122 22.2117 8.20342 22.1832 8.31742L22.1827 8.31946C21.9505 9.24897 21.7184 10.1785 21.4865 11.1081L22.0878 11.2494C22.09 11.2405 22.0923 11.2316 22.0945 11.2227C22.2293 10.6818 22.3638 10.1408 22.4984 9.59989L22.7802 8.46741C22.7967 8.40135 22.8153 8.32653 22.8593 8.24526C22.9686 8.04336 23.171 7.92284 23.4008 7.92284C23.4915 7.92284 23.5637 7.94085 23.6336 7.95827L24.0043 8.05079C24.5221 8.18004 25.0574 8.31368 25.584 8.44267C25.7762 8.48977 25.92 8.59054 26.0113 8.74219C26.1028 8.89418 26.1246 9.06887 26.0761 9.2614C25.8479 10.1676 25.6186 11.0901 25.3969 11.9822L25.3394 12.2136C25.4066 12.2391 25.4741 12.2651 25.5413 12.2918C26.5532 12.6934 27.2865 13.0969 27.919 13.6001C28.6845 14.2092 29.1789 14.8956 29.4302 15.6988C29.592 16.216 29.6459 16.7661 29.5902 17.3337C29.5019 18.2329 29.2618 18.9769 28.8561 19.6081C28.517 20.1359 28.0674 20.5536 27.5134 20.8571C27.7961 21.0763 28.0401 21.3098 28.2503 21.5614C28.7171 22.1203 29.005 22.7667 29.1061 23.4827C29.2104 24.2217 29.1238 24.9969 28.8334 25.9221C28.5965 26.6772 28.2837 27.307 27.8771 27.8475C27.207 28.7384 26.2872 29.3249 25.1434 29.5907C24.6733 29.7 24.1755 29.7582 23.6219 29.7687C23.5489 29.7701 23.4748 29.7708 23.4017 29.7708C22.8254 29.7708 22.2358 29.7272 21.6493 29.6413C21.4387 29.6104 21.2319 29.5792 21.0176 29.5467L20.1129 33.1701L19.3574 32.9827Z" fill="#FEFEFE"/>
<mask id="mask0" mask-type="alpha" maskUnits="userSpaceOnUse" x="0" y="0" width="40" height="41">
<path d="M0 0.019928H40V40.0218H0V0.019928Z" fill="white"/>
</mask>
<g mask="url(#mask0)">
<path fill-rule="evenodd" clip-rule="evenodd" d="M14.2395 9.97701C14.228 10.0127 14.2221 10.028 14.2182 10.0438C14.0352 10.7748 13.8528 11.5059 13.6689 12.2366C13.6506 12.3097 13.6942 12.3199 13.747 12.3323C14.1122 12.4183 14.4795 12.497 14.8414 12.5954C15.113 12.6692 15.3901 12.7426 15.6426 12.8628C16.1157 13.0879 16.3222 13.5892 16.195 14.0967C15.8563 15.4491 15.5203 16.8022 15.1834 18.155C14.7292 19.9791 14.2789 21.8041 13.8172 23.6262C13.7448 23.912 13.5566 24.1301 13.2502 24.1843C13.101 24.2107 12.9359 24.2001 12.7871 24.1662C12.3113 24.058 11.8391 23.9334 11.367 23.8096C11.2794 23.7866 11.2387 23.802 11.2019 23.8879C10.877 24.6463 10.5474 25.4026 10.2194 26.1597C10.1668 26.281 10.1673 26.2809 10.2993 26.3141C11.6785 26.6617 13.0578 27.0094 14.4369 27.3575C14.4641 27.3643 14.4901 27.3765 14.5195 27.3872C14.2219 28.5852 13.9267 29.7732 13.6291 30.9709C14.3667 31.154 15.0866 31.3328 15.8086 31.512C15.8227 31.4635 15.8319 31.4352 15.8391 31.4063C16.1185 30.2891 16.3986 29.1721 16.6752 28.0542C16.6938 27.9789 16.7213 27.9674 16.7909 27.9858C17.292 28.1182 17.7935 28.2488 18.2959 28.376C18.3772 28.3966 18.3914 28.4269 18.3709 28.5083C18.0918 29.618 17.8175 30.729 17.5386 31.8389C17.5194 31.9157 17.5308 31.9438 17.61 31.963C18.0874 32.0788 18.5635 32.2 19.0401 32.3192C19.2551 32.3729 19.4702 32.426 19.6997 32.4829C19.9994 31.2826 20.2966 30.0924 20.5922 28.9084C20.9836 28.9674 21.3574 29.025 21.7316 29.0799C22.3548 29.1712 22.9806 29.2133 23.6112 29.2014C24.0854 29.1924 24.5535 29.1453 25.015 29.0381C25.997 28.8098 26.8125 28.3189 27.4237 27.5064C27.8229 26.9758 28.0944 26.3821 28.2921 25.7523C28.516 25.0387 28.6505 24.3145 28.5442 23.562C28.4573 22.9461 28.2128 22.4017 27.8149 21.9252C27.4467 21.4844 26.9942 21.1476 26.5001 20.8625C26.4273 20.8204 26.3541 20.779 26.2663 20.729C26.3242 20.7139 26.3622 20.7044 26.4 20.6941C27.2268 20.4674 27.9089 20.0327 28.3788 19.3014C28.7745 18.6857 28.9547 17.9996 29.0255 17.2783C29.0726 16.7983 29.0327 16.3283 28.8887 15.8682C28.6522 15.1124 28.1754 14.5291 27.5658 14.0441C26.8918 13.5079 26.1273 13.1348 25.3321 12.8192C25.1134 12.7324 24.8918 12.6527 24.6686 12.5686C24.6782 12.5267 24.6857 12.4912 24.6944 12.456C24.9708 11.3447 25.2463 10.2333 25.5259 9.12285C25.5468 9.03978 25.5281 9.01318 25.449 8.9938C24.7981 8.83434 24.148 8.67134 23.4977 8.50918C23.3635 8.47571 23.3631 8.47515 23.3309 8.6045C23.1022 9.52292 22.8739 10.4415 22.6451 11.3598C22.598 11.5487 22.5493 11.7371 22.5004 11.9292C21.927 11.7945 21.3661 11.6627 20.801 11.5298C20.8056 11.5026 20.8072 11.4867 20.811 11.4713C21.0846 10.3748 21.3583 9.27839 21.6322 8.18202C21.6649 8.05096 21.6658 8.05028 21.5426 8.01968C20.8916 7.85786 20.24 7.69856 19.59 7.53267C19.499 7.50945 19.4691 7.52905 19.4474 7.61727C19.2083 8.59045 18.9657 9.56281 18.7237 10.5353C18.6808 10.7076 18.6359 10.8794 18.5883 11.0656C17.1322 10.7011 15.6898 10.34 14.2395 9.97701ZM19.7126 0.019928H20.2728C20.3048 0.0269741 20.3365 0.0388243 20.3688 0.0403657C20.7113 0.0564996 21.0544 0.0639061 21.3964 0.0878868C21.771 0.11417 22.1473 0.136929 22.5178 0.194119C23.1511 0.291864 23.7852 0.393532 24.4105 0.531871C26.3078 0.951675 28.1017 1.64826 29.7949 2.60176C31.8452 3.75634 33.6383 5.22576 35.1693 7.0128C36.8132 8.93147 38.0482 11.0852 38.8796 13.4716C39.4204 15.0238 39.759 16.6192 39.9081 18.2545C39.9498 18.7115 39.9553 19.1718 39.9787 19.6305C39.9814 19.6829 39.9927 19.735 40 19.7872V20.2673C39.9931 20.3062 39.9819 20.3448 39.9798 20.3839C39.9572 20.8161 39.9463 21.2491 39.9114 21.6803C39.8763 22.1139 39.8293 22.5474 39.7669 22.9779C39.6405 23.8504 39.4535 24.711 39.2066 25.5573C38.2734 28.7551 36.6567 31.5584 34.3379 33.9518C32.4195 35.9319 30.1813 37.446 27.6356 38.5022C26.099 39.1397 24.5076 39.5882 22.8571 39.8074C22.192 39.8957 21.5221 39.9563 20.8526 40.0009C20.408 40.0304 19.9594 40.0252 19.5138 40.0068C18.9191 39.9824 18.3227 39.9542 17.7325 39.8832C17.0737 39.804 16.4162 39.6982 15.7666 39.5632C14.1036 39.2176 12.5159 38.6483 10.9994 37.883C8.67721 36.7111 6.65808 35.1467 4.94438 33.1897C3.49599 31.5357 2.35386 29.6906 1.51349 27.6595C0.736077 25.7805 0.257423 23.8265 0.0782676 21.8018C0.0260624 21.212 -0.00280263 20.6179 4.18453e-06 20.026C0.00342276 19.4042 0.0379126 18.7809 0.0952823 18.1616C0.151011 17.5603 0.230359 16.959 0.339173 16.365C0.642736 14.708 1.154 13.1148 1.86838 11.5882C3.228 8.68267 5.1703 6.23857 7.6967 4.26312C9.77354 2.63922 12.0877 1.47867 14.6264 0.767916C15.4015 0.550928 16.186 0.374715 16.984 0.265941C17.4744 0.199063 17.966 0.136449 18.4589 0.0923507C18.8333 0.0588417 19.2106 0.0580009 19.5866 0.0411063C19.6288 0.0392047 19.6706 0.0272143 19.7126 0.019928Z" fill="#EA973D"/>
</g>
<path fill-rule="evenodd" clip-rule="evenodd" d="M17.4091 25.3312C17.4615 25.1172 17.5117 24.908 17.564 24.6992C17.8952 23.3749 18.2277 22.0508 18.5563 20.7259C18.5798 20.6311 18.6078 20.6065 18.7095 20.6302C19.5215 20.8198 20.338 20.9912 21.1311 21.2541C21.8382 21.4884 22.5253 21.7658 23.1276 22.2167C23.5216 22.5117 23.8474 22.8647 24.0036 23.3426C24.2975 24.2419 23.9136 25.4314 22.8264 25.8247C22.3133 26.0104 21.7847 26.0538 21.246 26.0452C20.5077 26.0334 19.784 25.9139 19.0674 25.7492C18.5432 25.6287 18.023 25.4912 17.5012 25.3609C17.4728 25.3538 17.4454 25.343 17.4091 25.3312Z" fill="#EA973D"/>
<path fill-rule="evenodd" clip-rule="evenodd" d="M19.139 18.3969C19.4962 16.9636 19.8506 15.5411 20.2073 14.1096C20.5933 14.1989 20.9685 14.2826 21.3422 14.3729C22.0159 14.5357 22.6774 14.7352 23.2981 15.0512C23.7084 15.2601 24.0885 15.5108 24.3767 15.8776C24.8293 16.4534 24.8642 17.0895 24.6209 17.7545C24.4045 18.346 23.9598 18.6915 23.3672 18.8566C22.9137 18.983 22.4498 18.9956 21.9815 18.9668C21.0764 18.9112 20.2066 18.6807 19.336 18.4511C19.2728 18.4345 19.21 18.4165 19.139 18.3969Z" fill="#EA973D"/>
</svg>
