<svg width="40" height="40" viewBox="0 0 40 40" fill="none" xmlns="http://www.w3.org/2000/svg">
<path fill-rule="evenodd" clip-rule="evenodd" d="M20.7789 21.4042C23.2655 21.4042 25.7521 21.4042 28.2386 21.4041C28.2919 21.4041 28.3453 21.4049 28.3986 21.4026C28.5251 21.3971 28.5661 21.3602 28.5769 21.2358C28.6422 20.4871 28.6427 19.7378 28.5899 18.9886C28.5683 18.6815 28.5442 18.6662 28.2299 18.6662C23.2668 18.6662 18.3036 18.6662 13.3405 18.6663C13.3005 18.6663 13.2604 18.6654 13.2205 18.6671C13.0491 18.6748 13.0028 18.7212 12.9964 18.891C12.9951 18.9243 12.9951 18.9577 12.9951 18.991C12.9951 19.6876 12.9951 20.3843 12.9953 21.0809C12.9954 21.404 12.9959 21.4041 13.3192 21.4041C15.8058 21.4042 18.2923 21.4042 20.7789 21.4042ZM20.1408 24.0199C17.8744 24.0199 15.6081 24.0199 13.3418 24.02C13.2752 24.02 13.2085 24.021 13.1419 24.0224C13.0533 24.0244 13.0069 24.0717 13.0019 24.1588C12.998 24.2253 12.9955 24.292 12.9955 24.3586C12.9952 25.7517 12.9952 27.1448 12.9952 28.5379C12.9952 28.5746 12.9952 28.6112 12.9962 28.6479C13.001 28.8067 13.0275 28.8343 13.1834 28.8398C13.2533 28.8423 13.3233 28.8423 13.3933 28.8423C15.433 28.8425 17.4727 28.8423 19.5124 28.8426C19.6987 28.8426 19.8864 28.8591 20.0713 28.8428C20.4259 28.8114 20.779 28.7627 21.1326 28.7199C22.2692 28.5825 23.3402 28.2222 24.3509 27.7019C25.5658 27.0765 26.5372 26.1645 27.2895 25.0239C27.4525 24.7769 27.5964 24.5165 27.737 24.2557C27.8323 24.0791 27.7876 24.0147 27.5887 24.0043C27.5687 24.0032 27.5487 24.0023 27.5287 24.0029C27.3257 24.0084 27.1227 24.0191 26.9197 24.0192C24.6601 24.0204 22.4004 24.0199 20.1408 24.0199ZM20.3903 16.1572C22.7732 16.1572 25.156 16.1573 27.5389 16.1562C27.5976 16.1561 27.657 16.1442 27.7146 16.1311C27.7324 16.1271 27.76 16.098 27.7578 16.085C27.7414 15.9952 27.7353 15.898 27.6951 15.8189C27.1927 14.8282 26.5179 13.9725 25.6539 13.273C24.0237 11.9533 22.1615 11.2656 20.059 11.2601C17.8094 11.2542 15.5599 11.2588 13.3103 11.2588C13.0038 11.2588 12.9953 11.2668 12.9952 11.5723C12.9952 12.9986 12.9952 14.425 12.9952 15.8514C12.9952 16.1562 12.9962 16.1571 13.3017 16.1572C15.6646 16.1572 18.0275 16.1572 20.3903 16.1572ZM15.529 8.87088C16.9789 8.87086 18.429 8.85452 19.8786 8.87446C22.4238 8.90946 24.7714 9.60236 26.8588 11.082C28.5324 12.2684 29.7532 13.8225 30.5184 15.7296C30.5345 15.7698 30.5486 15.8108 30.5626 15.8517C30.6154 16.0063 30.7224 16.0826 30.886 16.0824C31.6459 16.0815 32.4059 16.0807 33.1658 16.0802C33.4434 16.08 33.4641 16.0973 33.465 16.3719C33.4671 17.0485 33.4667 17.7252 33.4651 18.4018C33.4646 18.6057 33.4075 18.6636 33.2019 18.6646C32.6453 18.6671 32.0887 18.6659 31.5321 18.6663C31.4921 18.6663 31.452 18.6652 31.4121 18.6673C31.2887 18.674 31.2557 18.703 31.2591 18.8254C31.2642 19.0085 31.2868 19.1914 31.2861 19.3743C31.2841 19.917 31.2746 20.4596 31.2674 21.0023C31.2664 21.0822 31.2589 21.1622 31.2598 21.2421C31.2613 21.3746 31.2838 21.3959 31.4195 21.4021C31.4727 21.4046 31.5261 21.4041 31.5795 21.4041C32.1727 21.4043 32.766 21.4039 33.3593 21.4047C33.4801 21.4049 33.5094 21.4427 33.5027 21.5624C33.4886 21.8142 33.471 22.066 33.4676 22.318C33.4619 22.7512 33.4662 23.1846 33.4659 23.6179C33.4658 23.6712 33.4664 23.7247 33.462 23.7778C33.4513 23.9054 33.3957 23.9629 33.2678 23.9776C33.2217 23.9829 33.1747 23.9815 33.128 23.9814C32.3548 23.981 31.5815 23.9802 30.8082 23.9796C30.6599 23.9795 30.5557 24.0452 30.5047 24.1791C29.8125 25.9968 28.6624 27.4687 27.1355 28.6601C25.9241 29.6053 24.5583 30.2296 23.087 30.6418C22.1978 30.8909 21.2912 31.0339 20.3703 31.083C19.938 31.106 19.5045 31.1179 19.0716 31.1184C16.2685 31.1214 13.4653 31.12 10.6622 31.1198C10.4519 31.1198 10.4716 31.132 10.4715 30.9321C10.4711 28.7122 10.4713 26.4924 10.4712 24.2725C10.4712 24.0061 10.4688 24.0038 10.2053 24.0038C9.3287 24.0037 8.4521 24.0038 7.5755 24.0037C7.3771 24.0037 7.3431 23.9726 7.3427 23.7717C7.34128 23.0284 7.3434 22.2851 7.3404 21.5418C7.34002 21.4458 7.37206 21.4164 7.46732 21.4167C8.39058 21.4196 9.31386 21.4185 10.2371 21.4182C10.4395 21.4181 10.4694 21.3925 10.47 21.1884C10.472 20.4118 10.4715 19.6352 10.4702 18.8585C10.47 18.7084 10.441 18.6825 10.2836 18.6823C9.39034 18.6815 8.49706 18.6818 7.6038 18.6814C7.56052 18.6814 7.51698 18.6815 7.47404 18.6771C7.40672 18.6702 7.36248 18.6344 7.3542 18.5643C7.34834 18.5148 7.34254 18.4649 7.34248 18.4152C7.34172 17.7153 7.34168 17.0153 7.3421 16.3154C7.34222 16.1193 7.36492 16.0965 7.56006 16.0964C8.43668 16.0961 9.31328 16.0963 10.1899 16.0962C10.2299 16.0962 10.2699 16.0957 10.3098 16.0947C10.4039 16.0922 10.4608 16.0506 10.4632 15.95C10.465 15.8768 10.4709 15.8036 10.4709 15.7304C10.4713 13.5472 10.4712 11.364 10.4713 9.18084C10.4713 8.88306 10.4819 8.87126 10.7793 8.87116C12.3625 8.87066 13.9457 8.87092 15.529 8.87088Z" fill="white" stroke="white" stroke-width="0.909091"/>
<mask id="mask0" mask-type="alpha" maskUnits="userSpaceOnUse" x="0" y="0" width="40" height="40">
<path d="M0 7.62939e-06H40V40H0V7.62939e-06Z" fill="white"/>
</mask>
<g mask="url(#mask0)">
<path fill-rule="evenodd" clip-rule="evenodd" d="M20.5 7.62939e-06C20.566 0.00664763 20.6319 0.0149676 20.698 0.0196876L21.7085 0.0852936C21.8768 0.0975765 22.0449 0.111748 22.2125 0.129628C23.3775 0.253848 24.522 0.486668 25.6458 0.819888C28.6697 1.71655 31.3383 3.23755 33.6457 5.38693C35.4956 7.11019 36.9632 9.11723 38.0495 11.4001C39.1737 13.7625 39.8119 16.251 39.9599 18.8641C39.9719 19.0761 39.9866 19.288 40 19.5V20.5C39.9937 20.5489 39.9832 20.5976 39.9818 20.6467C39.9584 21.4904 39.8736 22.328 39.7411 23.1613C39.4671 24.8851 38.9774 26.5453 38.2621 28.1367C36.7002 31.6116 34.3443 34.4253 31.1924 36.5658C29.0387 38.0283 26.6819 39.0207 24.1352 39.5611C23.1364 39.773 22.1275 39.9091 21.1075 39.9615C20.8982 39.9722 20.6891 39.987 20.48 40H19.52C19.4673 39.9938 19.4147 39.9849 19.3618 39.982C19.0957 39.9673 18.8293 39.958 18.5635 39.94C17.3941 39.8606 16.2412 39.6751 15.106 39.3851C11.7984 38.5401 8.88152 36.9676 6.38546 34.6388C3.46652 31.9154 1.53518 28.6037 0.57418 24.7282C0.30586 23.6461 0.13498 22.548 0.05926 21.4355C0.03802 21.1238 0.01966 20.8118 0 20.5V19.5L0.01814 19.3528C0.05904 18.8016 0.08558 18.2489 0.14252 17.6993C0.25324 16.6303 0.46984 15.5805 0.76414 14.547C1.4876 12.0064 2.66288 9.69537 4.29962 7.62175C6.16498 5.25845 8.4502 3.41021 11.1474 2.07313C12.7654 1.27101 14.4635 0.703848 16.237 0.363328C17.1082 0.196048 17.9864 0.0850876 18.8727 0.0392076C19.0819 0.0283676 19.2909 0.0131876 19.5 7.62939e-06H20.5ZM18.4288 8.86467L15.5289 8.87093C13.9457 8.87093 12.3625 8.87067 10.7793 8.87117C10.5117 8.87126 10.4763 8.88081 10.4719 9.09981L10.4713 9.18085C10.4712 11.364 10.4713 13.5472 10.4709 15.7304C10.4709 15.8036 10.4649 15.8768 10.4632 15.95C10.4608 16.0506 10.4039 16.0922 10.3098 16.0947L10.1899 16.0962L7.56004 16.0964C7.3649 16.0965 7.3422 16.1193 7.34208 16.3153C7.34166 17.0153 7.3417 17.7152 7.34246 18.4152C7.34252 18.4649 7.34832 18.5148 7.35418 18.5643C7.36246 18.6344 7.4067 18.6702 7.47402 18.6771C7.51696 18.6815 7.5605 18.6814 7.60378 18.6814C8.49704 18.6818 9.39032 18.6815 10.2836 18.6823C10.4409 18.6825 10.47 18.7084 10.4702 18.8585C10.4715 19.6351 10.472 20.4118 10.47 21.1884C10.4694 21.3925 10.4395 21.4181 10.2371 21.4182C9.31384 21.4185 8.39056 21.4196 7.4673 21.4167C7.37204 21.4164 7.34 21.4458 7.34038 21.5418C7.34338 22.2851 7.34126 23.0284 7.3427 23.7717C7.34308 23.9726 7.37708 24.0036 7.57548 24.0037L10.2053 24.0038C10.4688 24.0038 10.4712 24.0061 10.4712 24.2725L10.4713 31.0364C10.4733 31.1012 10.4864 31.116 10.5533 31.1191L10.6621 31.1198C13.4653 31.12 16.2684 31.1214 19.0716 31.1184C19.5045 31.1179 19.938 31.106 20.3703 31.083C21.2912 31.0339 22.1978 30.8909 23.087 30.6418C24.5583 30.2296 25.924 29.6053 27.1354 28.6601C28.6624 27.4687 29.8124 25.9968 30.5047 24.1791C30.5557 24.0451 30.6599 23.9794 30.8082 23.9796L33.128 23.9814C33.1746 23.9815 33.2217 23.9828 33.2678 23.9776C33.3957 23.9629 33.4513 23.9054 33.462 23.7778C33.4664 23.7247 33.4658 23.6712 33.4659 23.6179C33.4661 23.1846 33.4619 22.7512 33.4676 22.318C33.4709 22.066 33.4886 21.8142 33.5027 21.5624C33.5094 21.4427 33.48 21.4049 33.3593 21.4047L31.5794 21.4041C31.5261 21.4041 31.4727 21.4046 31.4195 21.4021C31.2838 21.3959 31.2612 21.3746 31.2598 21.242C31.2589 21.1622 31.2664 21.0822 31.2674 21.0023C31.2746 20.4596 31.2841 19.917 31.2861 19.3743C31.2868 19.1914 31.2642 19.0085 31.2591 18.8254C31.2557 18.703 31.2887 18.674 31.4121 18.6673L31.472 18.666L31.532 18.6663C32.0887 18.6659 32.6453 18.6671 33.2019 18.6646C33.4075 18.6636 33.4646 18.6057 33.4651 18.4018C33.4666 17.7252 33.4671 17.0485 33.465 16.3719C33.4641 16.0972 33.4433 16.08 33.1658 16.0802L30.886 16.0824C30.7224 16.0826 30.6154 16.0063 30.5626 15.8517C30.5486 15.8108 30.5345 15.7698 30.5184 15.7296C29.7532 13.8225 28.5324 12.2684 26.8588 11.082C24.7713 9.60235 22.4238 8.90947 19.8786 8.87447L18.4288 8.86467ZM27.5887 24.0043C27.7875 24.0147 27.8322 24.0791 27.737 24.2557C27.5963 24.5165 27.4525 24.7769 27.2895 25.0239C26.5371 26.1645 25.5658 27.0765 24.3509 27.7019C23.3402 28.2222 22.2691 28.5825 21.1326 28.7199C20.779 28.7627 20.4259 28.8114 20.0712 28.8428C19.8864 28.8591 19.6987 28.8426 19.5123 28.8426L13.3933 28.8423C13.3233 28.8423 13.2533 28.8423 13.1834 28.8398C13.0275 28.8343 13.001 28.8067 12.9962 28.6479L12.9953 28.5929L12.9954 24.3586C12.9955 24.292 12.998 24.2253 13.0019 24.1588C13.0069 24.0717 13.0533 24.0244 13.1419 24.0224C13.2085 24.021 13.2751 24.02 13.3418 24.02L16.7413 24.0199L26.9197 24.0192C27.1227 24.0191 27.3257 24.0084 27.5287 24.0029C27.5487 24.0023 27.5687 24.0032 27.5887 24.0043ZM28.5899 18.9886C28.6426 19.7378 28.6421 20.4871 28.5769 21.2358C28.566 21.3602 28.5251 21.3971 28.3986 21.4026L28.3186 21.4042L13.3192 21.4041C13.0252 21.4041 12.9981 21.404 12.9956 21.1613L12.9951 18.991C12.9951 18.9577 12.9951 18.9243 12.9964 18.891C13.0027 18.7212 13.0491 18.6748 13.2205 18.6671L13.2804 18.666L28.2299 18.6662C28.5442 18.6662 28.5683 18.6815 28.5899 18.9886ZM20.059 11.2601C22.1615 11.2656 24.0236 11.9533 25.6539 13.273C26.5179 13.9725 27.1927 14.8282 27.6951 15.8189C27.7353 15.898 27.7414 15.9952 27.7577 16.085C27.7599 16.098 27.7323 16.127 27.7146 16.1311C27.657 16.1442 27.5976 16.1561 27.5389 16.1561L23.9646 16.1571L13.3017 16.1572C13.0268 16.1571 12.9984 16.1564 12.9955 15.934L12.9951 11.5722C12.9953 11.2668 13.0037 11.2588 13.3103 11.2588C15.5599 11.2588 17.8094 11.2542 20.059 11.2601Z" fill="#F6AC38"/>
</g>
</svg>
