<svg width="40" height="40" viewBox="0 0 40 40" fill="none" xmlns="http://www.w3.org/2000/svg">
<path d="M20 40C31.0457 40 40 31.0457 40 20C40 8.9543 31.0457 0 20 0C8.9543 0 0 8.9543 0 20C0 31.0457 8.9543 40 20 40Z" fill="#222222"/>
<path fill-rule="evenodd" clip-rule="evenodd" d="M29 29.1667C29 29.6269 28.6269 30 28.1667 30H28.1333C27.6731 30 27.3 29.6269 27.3 29.1667V23.333H13.7V29.1667C13.7 29.6269 13.3269 30 12.8667 30H12.8333C12.3731 30 12 29.6269 12 29.1667V10.8333C12 10.3731 12.3731 10 12.8333 10H12.8667C13.3269 10 13.7 10.3731 13.7 10.8333V16.666H27.3V10.8333C27.3 10.3731 27.6731 10 28.1333 10H28.1667C28.6269 10 29 10.3731 29 10.8333V29.1667ZM27.3 21.666V18.333H13.7V21.666H27.3Z" fill="white"/>
</svg>
