<?xml version="1.0" encoding="UTF-8"?>
<svg width="200px" height="200px" viewBox="0 0 200 200" version="1.1" xmlns="http://www.w3.org/2000/svg" xmlns:xlink="http://www.w3.org/1999/xlink">
    <title>ichi_logo_social_200px</title>
    <defs>
        <linearGradient x1="50%" y1="0%" x2="50%" y2="100%" id="linearGradient-1">
            <stop stop-color="#006CF1" offset="0%"></stop>
            <stop stop-color="#0064E0" offset="100%"></stop>
        </linearGradient>
    </defs>
    <g id="ichi_logo_social_200px" stroke="none" stroke-width="1" fill="none" fill-rule="evenodd">
        <g id="Group">
            <rect id="Rectangle" fill="url(#linearGradient-1)" x="0" y="0" width="200" height="200"></rect>
            <path d="M79.2675596,95.1145991 L79.2675596,76.2053392 C85.4029922,77.3064896 92.2756364,77.9824433 100.001091,77.9824433 C107.726545,77.9824433 114.597008,77.3064896 120.734622,76.2053392 L120.734622,95.1145991 L79.2675596,95.1145991 Z M100.001091,122.015376 C92.2756364,122.015376 85.4029922,122.69133 79.2675596,123.794661 L79.2675596,104.88322 L120.734622,104.88322 L120.734622,123.794661 C114.597008,122.69133 107.726545,122.015376 100.001091,122.015376 L100.001091,122.015376 Z M134.763453,72.5639111 C134.848516,72.5333842 134.931398,72.5006767 135.01646,72.4701498 C141.206421,70.2940149 146.268752,67.7101274 150.297243,65.1545862 C152.210067,63.9422306 153.333333,61.8075251 153.333333,59.5441704 C153.333333,55.8809374 149.248134,53.741871 146.220768,55.8046201 C141.636097,58.9292706 135.158232,62.2741512 126.381488,64.6552527 C126.115394,64.7272091 125.862386,64.8057069 125.594111,64.8754828 C124.379239,65.1916547 123.11202,65.4838411 121.809904,65.7585836 C121.415125,65.8436229 121.00944,65.9199403 120.608118,65.9984381 C119.528474,66.2143072 118.418294,66.4105518 117.27976,66.5937135 C116.932965,66.6482259 116.594895,66.7092798 116.241557,66.7616117 C114.76059,66.9796613 113.233821,67.1737254 111.652524,67.3350821 C111.379886,67.361248 111.096343,67.3808725 110.819344,67.4070384 C109.451794,67.5356877 108.042804,67.638171 106.598916,67.7188493 C106.191051,67.7406543 105.783185,67.7646398 105.368776,67.7820837 C103.628259,67.8584011 101.850663,67.910733 100.001091,67.910733 C98.1558804,67.910733 96.3848277,67.8584011 94.6508537,67.7820837 C94.2168149,67.7646398 93.7936816,67.7406543 93.3705483,67.7166689 C91.981188,67.638171 90.6267253,67.5400487 89.3093412,67.4157604 C88.9712708,67.3852335 88.6266571,67.361248 88.29513,67.3285406 C86.7661793,67.1715449 85.2939372,66.9840222 83.8587738,66.7725142 C83.3854752,66.7027383 82.9318066,66.6242404 82.4672324,66.5479231 C81.5053675,66.3909274 80.5653137,66.2230292 79.6470709,66.0442285 C79.0952527,65.9373842 78.5412535,65.8305399 78.004703,65.7149737 C77.0733735,65.5143681 76.1703984,65.3006795 75.284872,65.0804494 C74.4647787,64.8754828 73.6708585,64.6617942 72.8878438,64.4415641 C64.4993354,62.0800871 58.2613911,58.8420508 53.8032239,55.8133421 C50.7649525,53.746232 46.6666667,55.8743959 46.6666667,59.5485314 C46.6666667,61.8097056 47.7877518,63.9400501 49.6962137,65.1524057 C53.7203422,67.7035859 58.7717684,70.2831125 64.9486419,72.4570668 C65.0511536,72.4941352 65.1493031,72.5333842 65.2561769,72.5704526 C66.4928603,73.0000103 67.7862523,73.4055825 69.1079985,73.8024327 L69.1079985,95.1145991 L64.6192959,95.1145991 C62.6214089,95.1145991 61.000852,96.7347075 61.000852,98.7320417 C61.000852,102.129254 63.7577616,104.88322 67.1537334,104.88322 L69.1079985,104.88322 L69.1079985,126.195387 C67.7862523,126.592237 66.4928603,126.99999 65.2561769,127.427367 C65.1493031,127.464435 65.0511536,127.503684 64.9486419,127.542933 C58.7717684,129.716888 53.7203422,132.294234 49.6962137,134.847594 C47.7877518,136.057769 46.6666667,138.188114 46.6666667,140.451469 C46.6666667,144.123424 50.7649525,146.251587 53.8032239,144.186658 C58.2613911,141.155769 64.4993354,137.919913 72.8878438,135.556255 C73.6708585,135.336025 74.4647787,135.122337 75.284872,134.91737 C76.1703984,134.69714 77.0733735,134.483451 78.004703,134.282846 C78.5412535,134.16728 79.0952527,134.060435 79.6470709,133.953591 C80.5653137,133.77479 81.5053675,133.606892 82.4672324,133.452077 C82.9318066,133.37576 83.3854752,133.295081 83.8587738,133.225305 C85.2939372,133.013797 86.7661793,132.826275 88.29513,132.671459 C88.6266571,132.636571 88.9712708,132.612586 89.3093412,132.582059 C90.6267253,132.459951 91.981188,132.359649 93.3705483,132.281151 C93.7936816,132.259346 94.2168149,132.23536 94.6508537,132.215736 C96.3848277,132.139418 98.1558804,132.087087 100.001091,132.087087 C101.850663,132.087087 103.628259,132.139418 105.368776,132.215736 C105.783185,132.23318 106.191051,132.257165 106.598916,132.27897 C108.042804,132.359649 109.451794,132.462132 110.819344,132.590781 C111.096343,132.616947 111.379886,132.636571 111.652524,132.662737 C113.233821,132.824094 114.76059,133.018158 116.241557,133.238388 C116.594895,133.29072 116.932965,133.349594 117.27976,133.406287 C118.418294,133.587268 119.528474,133.785693 120.608118,133.999381 C121.00944,134.077879 121.415125,134.156377 121.809904,134.239236 C123.11202,134.513978 124.379239,134.806165 125.594111,135.122337 C125.862386,135.192113 126.115394,135.272791 126.381488,135.342567 C135.158232,137.725849 141.636097,141.070729 146.220768,144.19538 C149.248134,146.258129 153.333333,144.119063 153.333333,140.45583 C153.333333,138.190294 152.210067,136.055589 150.297243,134.843233 C146.268752,132.287692 141.206421,129.703805 135.01646,127.52767 C134.931398,127.497143 134.848516,127.464435 134.763453,127.436089 C133.522407,127.004351 132.222472,126.594418 130.892001,126.195387 L130.892001,104.88322 L135.380704,104.88322 C137.378591,104.88322 138.999148,103.263112 138.999148,101.265778 C138.999148,97.8685653 136.244419,95.1145991 132.844085,95.1145991 L130.892001,95.1145991 L130.892001,73.8024327 C132.222472,73.4055825 133.522407,72.9956493 134.763453,72.5639111 L134.763453,72.5639111 Z" id="Fill-4" fill="#FFFFFF"></path>
        </g>
    </g>
</svg>