<svg width="200" height="200" viewBox="0 0 200 200" fill="none" xmlns="http://www.w3.org/2000/svg">
<path fill-rule="evenodd" clip-rule="evenodd" d="M139.433 55.5807C139.433 54.4408 138.421 53.5696 137.294 53.7512C131.974 54.6002 117.333 56.6577 100.361 56.6577C83.1501 56.6577 68.514 54.5705 63.1904 53.7067C62.0634 53.5251 61.0476 54.3926 61.0476 55.5381V58.1183C61.0476 59.0488 61.726 59.8329 62.6473 59.9534C63.8095 60.1073 65.563 60.3297 67.7744 60.5781V72.5339C67.7744 73.5571 68.6029 74.3875 69.628 74.3875H77.0777C78.1027 74.3875 78.9313 73.5571 78.9313 72.5339V61.6495C85.317 62.1574 92.8093 62.567 100.374 62.567C107.896 62.567 115.27 62.124 121.55 61.5716V72.5339C121.55 73.5571 122.378 74.3875 123.403 74.3875H130.853C131.878 74.3875 132.706 73.5571 132.706 72.5339V60.376C134.94 60.0924 136.703 59.8403 137.863 59.668C138.771 59.5326 139.433 58.7541 139.433 57.8366V55.5807Z" fill="white"/>
<mask id="mask0" mask-type="alpha" maskUnits="userSpaceOnUse" x="50" y="19" width="101" height="17">
<path d="M50.1494 19H150.335V35.9166H50.1494V19Z" fill="white"/>
</mask>
<g mask="url(#mask0)">
<path fill-rule="evenodd" clip-rule="evenodd" d="M100.455 35.9168C124.939 35.9168 143.55 31.4552 148.445 30.1576C149.211 29.9537 149.748 29.2883 149.804 28.4987L150.33 21.0082C150.425 19.681 149.14 18.6986 147.88 19.1249C142.335 21.0064 127.714 24.8248 100.357 24.8248C73.1994 24.8248 58.2834 20.9841 52.5928 19.0971C51.3119 18.6727 50.0255 19.6977 50.159 21.0397L50.9319 28.7396C51.0098 29.5144 51.551 30.1558 52.3036 30.3467C57.1786 31.5886 75.9242 35.9168 100.455 35.9168Z" fill="#0072FF"/>
</g>
<path fill-rule="evenodd" clip-rule="evenodd" d="M141.106 47.7281L145.306 39.0402C145.983 37.6426 144.755 36.08 143.239 36.4229C136.594 37.9318 121.524 40.6992 100.454 40.6992C79.3915 40.6992 64.0195 37.9577 57.2389 36.473C55.7116 36.1375 54.4956 37.7279 55.2018 39.1218L59.5671 47.73L59.821 47.8078C60.3326 47.9635 72.6499 51.617 100.361 51.617C128.088 51.617 140.333 47.9635 140.841 47.8078L141.106 47.7281Z" fill="#004CAB"/>
<path fill-rule="evenodd" clip-rule="evenodd" d="M64.6314 88.734H135.847C136.872 88.734 137.701 87.9054 137.701 86.8803V79.4288C137.701 78.4056 136.872 77.5752 135.847 77.5752H64.6314C63.6083 77.5752 62.7778 78.4056 62.7778 79.4288V86.8803C62.7778 87.9054 63.6083 88.734 64.6314 88.734Z" fill="white"/>
<path fill-rule="evenodd" clip-rule="evenodd" d="M26.6848 113.6C25.378 113.6 24.0804 113.637 22.7885 113.704C21.6967 113.761 20.8811 114.781 21.0572 115.86C21.4186 118.062 21.8691 120.234 22.4048 122.371C22.5901 123.102 23.2074 123.634 23.9507 123.743C55.7921 128.405 81.865 151.063 91.4797 181.025C91.7077 181.737 92.3305 182.252 93.0738 182.314C95.3778 182.504 97.706 182.599 100.062 182.588C100.805 181.75 101.148 181.363 101.891 180.523C97.5206 142.902 65.4624 113.6 26.6848 113.6Z" fill="#0072FF"/>
<path fill-rule="evenodd" clip-rule="evenodd" d="M78.9319 106.258V93.7779C78.9319 92.7529 78.1034 91.9243 77.0783 91.9243H69.6268C68.6036 91.9243 67.7732 92.7529 67.7732 93.7779V101.042C59.6117 98.0264 50.7941 96.3748 41.5983 96.3748C34.6009 96.3748 27.8241 97.335 21.3865 99.1182C20.6043 99.3369 20.0519 100.047 20.0297 100.859C20.0111 101.532 20 102.206 20 102.885C20 103.241 20.0037 103.597 20.0093 103.952C20.0278 105.011 20.9157 105.826 21.9722 105.765C23.533 105.678 25.1049 105.63 26.6841 105.63C69.6843 105.63 105.207 138.228 109.856 180.006C109.971 181.05 110.912 181.813 111.95 181.652C113.135 181.467 114.312 181.257 115.478 181.024C116.275 180.863 116.885 180.192 116.963 179.38C117.194 176.981 117.318 174.553 117.318 172.095C117.318 143.911 101.831 119.295 78.9319 106.258Z" fill="white"/>
<path fill-rule="evenodd" clip-rule="evenodd" d="M136.711 173.479C150.498 166.239 161.911 155.086 169.455 141.486C170.33 139.91 168.611 138.108 167.001 138.92C153.047 145.966 141.562 157.202 134.201 170.967C133.352 172.558 135.113 174.319 136.711 173.479Z" fill="#0072FF"/>
<path fill-rule="evenodd" clip-rule="evenodd" d="M122.271 149.796C123.569 154.49 124.468 159.348 124.927 164.332C125.09 166.114 127.47 166.61 128.358 165.059C138.549 147.281 155.071 133.581 174.834 127.056C175.41 126.867 175.866 126.415 176.042 125.833C176.964 122.763 177.705 119.616 178.254 116.4C178.461 115.187 177.41 114.092 176.191 114.251C153.699 117.204 134.292 130.066 122.493 148.297C122.206 148.742 122.13 149.286 122.271 149.796Z" fill="#0072FF"/>
<path fill-rule="evenodd" clip-rule="evenodd" d="M179.288 98.4022C179.238 97.4865 178.507 96.7358 177.594 96.658C175.479 96.4745 173.343 96.3744 171.184 96.3744C157.139 96.3744 143.989 100.237 132.706 106.931V93.7774C132.706 92.7524 131.878 91.9238 130.853 91.9238H123.403C122.378 91.9238 121.55 92.7524 121.55 93.7774V115.009C118.131 117.984 114.967 121.242 112.128 124.775C111.625 125.396 111.597 126.269 112.029 126.94C114.065 130.105 115.894 133.411 117.496 136.844C118.08 138.094 119.761 138.348 120.619 137.269C134.325 120.064 154.653 108.364 177.71 106.058C178.643 105.965 179.38 105.209 179.399 104.271C179.406 103.809 179.41 103.348 179.41 102.884C179.41 101.379 179.369 99.887 179.288 98.4022Z" fill="white"/>
<path fill-rule="evenodd" clip-rule="evenodd" d="M26.9221 135.418C36.687 157.228 55.9664 173.842 79.4795 179.994C80.9772 180.387 82.2785 178.891 81.6816 177.462C72.4154 155.272 52.882 138.402 29.0501 132.819C27.5338 132.463 26.2845 133.996 26.9221 135.418Z" fill="#0072FF"/>
</svg>
