<svg width="40" height="40" viewBox="0 0 40 40" fill="none" xmlns="http://www.w3.org/2000/svg">
<path d="M20 40C31.0457 40 40 31.0457 40 20C40 8.9543 31.0457 0 20 0C8.9543 0 0 8.9543 0 20C0 31.0457 8.9543 40 20 40Z" fill="#3B5ECA"/>
<path fill-rule="evenodd" clip-rule="evenodd" d="M14.4442 20.0023C14.4442 21.1263 14.4451 22.2504 14.4426 23.3744C14.4424 23.4611 14.4681 23.5123 14.5464 23.5561C14.9215 23.7659 15.293 23.9819 15.6656 24.1961C17.2165 25.0875 18.767 25.9797 20.3187 26.8699C20.565 27.0112 20.472 27.0121 20.7261 26.8669C21.5908 26.3729 22.4531 25.875 23.3165 25.3789C24.3708 24.7732 25.4246 24.1667 26.4806 23.564C26.572 23.5118 26.6028 23.4516 26.6026 23.3482C26.5998 21.1176 26.5996 18.8869 26.603 16.6563C26.6032 16.5461 26.5644 16.4871 26.4715 16.4354C26.1447 16.2538 25.8221 16.0647 25.4979 15.8786C24.5828 15.3532 23.6676 14.828 22.7526 14.3026C22.0376 13.8919 21.3221 13.482 20.6087 13.0685C20.5411 13.0294 20.4905 13.0332 20.4265 13.0701C19.567 13.566 18.7066 14.0602 17.8463 14.5546C17.0102 15.0351 16.174 15.5155 15.3379 15.9959C15.0683 16.1508 14.7995 16.3072 14.5284 16.4594C14.4654 16.4948 14.4342 16.5376 14.4438 16.6094C14.447 16.6334 14.4442 16.6581 14.4442 16.6825C14.4442 17.7891 14.4442 18.8957 14.4442 20.0023ZM10 26.0066V13.998C10.0381 13.9808 10.0778 13.9663 10.114 13.9458C10.3541 13.8096 10.5937 13.6724 10.8332 13.5351C11.9487 12.8953 13.0643 12.2556 14.1796 11.6154C15.2858 10.9804 16.3914 10.3442 17.4978 9.70959C18.4769 9.14802 19.4573 8.58848 20.4358 8.0259C20.4996 7.9892 20.5478 7.99269 20.6091 8.02886C20.8227 8.15493 21.0397 8.27547 21.2549 8.39886C22.2372 8.96196 23.2195 9.52505 24.2015 10.0886C25.3047 10.7218 26.4074 11.3559 27.5107 11.9888C28.6383 12.6357 29.7661 13.2824 30.8954 13.9263C30.9727 13.9704 30.9996 14.0204 30.9995 14.1077C30.9976 18.0372 30.9974 21.9667 31 25.8963C31 25.9907 30.9653 26.0383 30.8868 26.083C29.9577 26.6126 29.0292 27.1431 28.1032 27.6779C26.9473 28.3454 25.7947 29.019 24.6388 29.6867C23.3226 30.4471 22.004 31.2032 20.6878 31.9637C20.6086 32.0095 20.5475 32.0137 20.4671 31.9663C20.1511 31.7799 19.8315 31.5996 19.5127 31.4179C17.84 30.4643 16.1669 29.5112 14.4942 28.5574C13.1342 27.7819 11.7748 27.0054 10.4146 26.2302C10.2782 26.1525 10.1383 26.081 10 26.0066Z" fill="white"/>
</svg>
