<svg width="40" height="40" viewBox="0 0 40 40" fill="none" xmlns="http://www.w3.org/2000/svg">
<path d="M20 40C31.0457 40 40 31.0457 40 20C40 8.9543 31.0457 0 20 0C8.9543 0 0 8.9543 0 20C0 31.0457 8.9543 40 20 40Z" fill="#00BD9A"/>
<path fill-rule="evenodd" clip-rule="evenodd" d="M30.3182 26.6183C30.3061 26.6567 30.2973 26.6966 30.2814 26.7334C30.2017 26.9178 29.981 27.0394 29.7918 27.0049C29.5665 26.9639 29.4058 26.7922 29.3925 26.5766C29.3896 26.5281 29.3908 26.4793 29.3908 26.4306C29.3908 22.4728 29.3908 18.515 29.3908 14.5572V14.4344C29.346 14.4284 29.3255 14.4581 29.3015 14.4761C28.9508 14.7385 28.6007 15.0018 28.2506 15.265C26.6295 16.4834 25.0084 17.7019 23.3874 18.9204C23.0221 19.195 22.6579 19.4709 22.2906 19.7428C22.2299 19.7878 22.207 19.835 22.207 19.9108C22.2091 22.0871 22.2087 24.2633 22.2087 26.4396C22.2087 26.4801 22.2093 26.5207 22.2078 26.5612C22.1989 26.8102 21.9913 27.0106 21.7428 27.0105C21.4987 27.0104 21.2913 26.813 21.2786 26.5682C21.277 26.5385 21.2774 26.5087 21.2774 26.479C21.2774 24.1973 21.2772 21.9156 21.2782 19.6339C21.2782 19.5696 21.283 19.5037 21.2979 19.4415C21.3242 19.332 21.395 19.2517 21.4846 19.1846C21.9262 18.8541 22.3668 18.5222 22.8076 18.1907C24.69 16.7754 26.5724 15.3601 28.4548 13.9448C28.7919 13.6913 29.1301 13.4391 29.4656 13.1835C29.5676 13.1057 29.6716 13.0358 29.7989 13.0081H29.9125C29.9357 13.015 29.9587 13.022 29.982 13.0286C30.1169 13.0673 30.2169 13.1484 30.2763 13.2759C30.2943 13.3145 30.3044 13.3568 30.3182 13.3974V26.6183Z" fill="white" stroke="white" stroke-width="1.04762"/>
<path fill-rule="evenodd" clip-rule="evenodd" d="M9.91407 14.4227C9.9129 14.4595 9.91069 14.4963 9.91069 14.533C9.91052 16.2985 9.91054 18.064 9.91054 19.8294C9.91054 22.0275 9.91055 24.2255 9.91052 26.4235C9.91052 26.4695 9.91122 26.5155 9.90955 26.5614C9.90097 26.7969 9.71148 26.9825 9.47618 26.9931C9.2903 27.0014 9.15162 26.9274 9.05653 26.7696C9.02253 26.7132 9.00265 26.6517 9.00178 26.5851C9.0012 26.5391 9.00016 26.4932 9.00016 26.4472C9 22.1512 9 17.8551 9.00012 13.559C9.00012 13.5212 8.99952 13.4833 9.00101 13.4455C9.00999 13.2158 9.19418 13.0351 9.42376 13.0234C9.55592 13.0166 9.6666 13.0618 9.76916 13.1393C10.0539 13.3545 10.3393 13.5689 10.6247 13.7832C11.4615 14.4115 12.2985 15.0396 13.1353 15.6679C14.2208 16.483 15.3062 17.2981 16.3916 18.1133C16.8608 18.4656 17.3297 18.8183 17.7991 19.1703C17.8601 19.2161 17.9174 19.2644 17.9575 19.3307C17.9975 19.3968 18.0235 19.4667 18.0247 19.5446C18.0253 19.5852 18.0261 19.6257 18.0261 19.6663C18.0261 21.9265 18.0261 24.1867 18.0261 26.447C18.0261 26.4821 18.0263 26.5173 18.0253 26.5524C18.019 26.777 17.8551 26.9638 17.6425 26.9892C17.3963 27.0185 17.1883 26.8834 17.1284 26.6541C17.121 26.6257 17.1184 26.5956 17.1171 26.566C17.115 26.5202 17.1158 26.4741 17.1158 26.4282C17.1157 24.268 17.1158 22.1078 17.1157 19.9476C17.1157 19.777 17.125 19.8115 16.9977 19.7157C16.3041 19.1939 15.6095 18.6734 14.9155 18.1521C14.0442 17.4977 13.173 16.8431 12.3018 16.1886C11.5409 15.6169 10.78 15.0451 10.019 14.4734C9.99139 14.4527 9.96297 14.4331 9.93493 14.4129C9.92797 14.4162 9.92102 14.4194 9.91407 14.4227Z" fill="white" stroke="white" stroke-width="1.04762"/>
</svg>
