<?xml version="1.0" encoding="UTF-8"?>
<svg width="55px" height="57px" viewBox="0 0 55 57" version="1.1" xmlns="http://www.w3.org/2000/svg" xmlns:xlink="http://www.w3.org/1999/xlink">
    <title>B7ED5B45-8BFE-4BBB-8838-DFB31F8E2EA9</title>
    <g id="Site" stroke="none" stroke-width="1" fill="none" fill-rule="evenodd">
        <g id="Assets" transform="translate(-1239.000000, -169.000000)">
            <g id="coin_bitcoin" transform="translate(1241.000000, 171.000000)">
                <path d="M27.7974233,25.9682479 C28.5386727,26.1612914 29.2512364,26.3301669 29.9862689,26.3753643 C30.1150845,26.3832804 30.2316062,26.3871384 30.3424308,26.3871384 C30.6616912,26.3871384 30.9367136,26.3537551 31.1831504,26.2850895 C31.6373433,26.1584928 31.9144248,25.9203518 32.0551744,25.5355842 C32.2474983,25.0098071 32.1975432,24.5873383 31.897933,24.2061289 C31.7004318,23.9547946 31.4263288,23.748038 31.0091574,23.5356442 C30.3810315,23.2158441 29.7016512,23.0301169 29.179932,22.90406 C28.9858691,22.8571634 28.7935652,22.8125857 28.5951044,22.7670285 L27.7974233,25.9682479 Z M26.0803818,32.8941849 C26.4373433,32.9848796 26.8064588,33.0786727 27.1682379,33.1618111 C27.9607216,33.34396 28.6145747,33.4333353 29.225989,33.4430905 C29.2645697,33.4436902 29.3031704,33.44403 29.3416712,33.44403 C29.8485377,33.44403 30.2491774,33.3844998 30.6025007,33.2566837 C31.3803118,32.9752444 31.6387826,32.1188926 31.4322059,31.4868286 C31.3315562,31.1789225 31.1168436,30.9098371 30.7564038,30.640032 C30.1866887,30.2134853 29.5103668,29.9573133 28.92396,29.7629505 C28.2938551,29.5541349 27.654075,29.4067086 26.9773333,29.2513263 C26.7656792,30.1026407 26.5510065,30.960012 26.3424508,31.7930755 C26.2581529,32.1297071 26.1738751,32.4663188 26.0896972,32.8029705 C26.0823408,32.8323758 26.0750645,32.8616812 26.0678081,32.8910065 C26.072006,32.892046 26.0762039,32.8931254 26.0803818,32.8941849 L26.0803818,32.8941849 Z M27.3309765,40.9377031 C27.1762539,40.8993623 27.0264088,40.8622409 26.8766437,40.8247996 C26.7436702,40.7915562 26.6106767,40.7581329 26.4776632,40.7247296 C26.1414713,40.6402719 25.7938251,40.5529155 25.4523358,40.470057 C25.216074,40.4127456 25.091976,40.2773333 25.0294873,40.1738451 C24.9385127,40.0232204 24.9168636,39.8494273 24.9651394,39.6573433 C25.0996122,39.122091 25.2353443,38.5772634 25.3665987,38.0503668 C25.4710465,37.6311364 25.5781329,37.2013113 25.6854993,36.7726657 C25.4941549,36.7234503 25.2952944,36.6718561 25.0871184,36.6174233 C24.8911964,37.4066287 24.6924958,38.2007916 24.4992724,38.9730055 L24.3671784,39.5009615 C24.3594423,39.531986 24.3515062,39.5584928 24.3431304,39.5865587 C24.3396122,39.5982929 24.3356742,39.6114863 24.3311964,39.6269385 L24.1793523,40.1503368 L20.9238801,39.341981 L21.8157141,35.7527756 C20.5927056,35.4441699 19.3697771,35.135924 18.1467686,34.8276982 C18.0313663,34.7986127 17.7929655,34.7385027 17.6675682,34.4838301 C17.5422509,34.2293373 17.6389625,34.006069 17.6854393,33.8987826 C17.7673183,33.7098371 17.8492574,33.5209515 17.9311964,33.332086 C18.1728756,32.7751044 18.4227706,32.1991324 18.6657091,31.6321359 C18.7814313,31.362091 19.0148546,31.2009115 19.2901569,31.2009115 C19.356044,31.2009115 19.4231504,31.2101069 19.4953143,31.2290375 L19.5551044,31.2447296 C19.9947046,31.360072 20.4492974,31.4793323 20.8952544,31.5807216 C20.9492474,31.5929955 21.0046397,31.5994723 21.0554343,31.5994723 C21.0842399,31.5994723 21.1104268,31.5974333 21.1333553,31.5933953 C21.1669785,31.5874383 21.2177331,31.5784428 21.2490375,31.4548446 C21.591926,30.1015412 21.9343348,28.7233103 22.2654693,27.3904768 C22.3811714,26.9247496 22.4968736,26.4590225 22.6128556,25.9933353 L22.8612314,24.9953543 C23.1104668,23.9938351 23.3681979,22.9582329 23.6232704,21.9398421 C23.6737051,21.7385027 23.6357041,21.4796522 23.3777931,21.3569135 C23.1802919,21.2629605 22.9474083,21.1997121 22.7008316,21.1327456 L22.6724658,21.1250495 C22.420032,21.0564238 22.1668186,20.9982529 21.8987726,20.9366837 C21.7985627,20.9136752 21.6983928,20.8906467 21.5983428,20.8670785 C21.525939,20.850047 21.3055692,20.7981729 21.1691774,20.574005 C21.0814413,20.4298171 21.0571334,20.2549845 21.1007516,20.0816912 C21.2332654,19.5550945 21.3649995,19.0282779 21.4967136,18.5014813 L21.6490375,17.8925057 C21.6569135,17.8610015 21.6653893,17.8357141 21.6722059,17.8154043 C21.6745447,17.8084278 21.6773633,17.800052 21.6807816,17.7894573 L21.8434803,17.2850295 L26.1532654,18.3638301 L26.2376632,18.0248396 C26.445999,17.1881179 26.6614113,16.3228906 26.8705667,15.4716962 C26.9656792,15.0846897 27.2608116,14.9467986 27.5053293,14.9467986 C27.5685377,14.9467986 27.6333253,14.9554943 27.7033903,14.9733653 C28.1714163,15.0928256 28.6491974,15.2110465 29.1112864,15.3253693 C29.2908366,15.3698071 29.4703868,15.4142249 29.6498971,15.4588426 C29.7532854,15.4845297 29.9683978,15.538023 30.1012114,15.7589725 C30.2342849,15.9803418 30.1813713,16.1922559 30.1529255,16.306099 L30.1524258,16.3081379 C29.9205217,17.2363738 29.6887776,18.1646697 29.4571334,19.0929255 L30.0576532,19.234075 C30.0598921,19.2251594 30.0621109,19.2162639 30.0643098,19.2073683 C30.1989225,18.6672184 30.3333153,18.1270085 30.4677281,17.5868186 L30.7491674,16.4558841 C30.7655992,16.389917 30.7842099,16.3151944 30.8281279,16.234035 C30.9372334,16.0324158 31.1394123,15.912056 31.3689175,15.912056 C31.4594523,15.912056 31.5315962,15.930047 31.6013613,15.9474383 L31.9715562,16.0398321 C32.4885977,16.1689075 33.0232304,16.3023608 33.5490675,16.4311764 C33.7410515,16.4782129 33.8846397,16.5788426 33.9757941,16.7302869 C34.0671884,16.882071 34.0889575,17.0565237 34.0405617,17.2487876 C33.8126557,18.1537351 33.5836902,19.0749745 33.3622409,19.9658491 L33.3047896,20.1969135 C33.371936,20.2224008 33.4393623,20.2484278 33.5064888,20.2750545 C34.5170035,20.6761339 35.2492774,21.0790525 35.8809015,21.5815612 C36.6453993,22.1897971 37.1390525,22.8753343 37.390007,23.6773533 C37.5516662,24.1938751 37.6054393,24.7432204 37.5497871,25.310057 C37.4616312,26.208068 37.2218511,26.9510165 36.8167336,27.5814013 C36.478063,28.1084578 36.0291274,28.5256092 35.4758241,28.8286377 C35.7581629,29.0475282 36.0018611,29.2806917 36.2117961,29.532046 C36.6778831,30.0901469 36.9653993,30.7356442 37.0663488,31.4506667 C37.1705367,32.1886977 37.08402,32.9627706 36.794065,33.8867886 C36.5574833,34.6408316 36.2450995,35.2697571 35.8391024,35.8095072 C35.1698371,36.6992224 34.2513363,37.2849295 33.1091074,37.5503768 C32.6395822,37.6595022 32.1425307,37.7176332 31.5896472,37.728088 C31.5167836,37.7294673 31.4428006,37.7301669 31.3697771,37.7301669 C30.7942449,37.7301669 30.2054593,37.6866487 29.6197521,37.6008316 C29.4094973,37.570027 29.2029005,37.5388626 28.9889475,37.5064388 L28.0854793,41.1248696 L27.3309765,40.9377031 Z" id="Fill-1" fill="#FEFEFE"></path>
                <g id="Group-5" transform="translate(3.000000, 3.007196)" fill="#EA973D">
                    <path d="M19.220056,14.9562259 C19.2085617,14.9918681 19.2026647,15.0071404 19.1987266,15.0228926 C19.016018,15.7528876 18.833909,16.4830225 18.6502609,17.2127776 C18.63191,17.2857011 18.6754883,17.295916 18.7282219,17.3083298 C19.0929595,17.3942269 19.4597161,17.4728076 19.8210955,17.5710585 C20.0923798,17.6447816 20.3691014,17.718085 20.6212754,17.838065 C21.0936792,18.0628526 21.2998961,18.5634623 21.1729195,19.0703288 C20.8346687,20.4208336 20.4991164,21.772058 20.1626847,23.1230625 C19.7090915,24.9446117 19.2593963,26.7671404 18.7983268,28.5867906 C18.726043,28.8721479 18.538037,29.090019 18.2321099,29.1441519 C18.0831044,29.1705187 17.9182469,29.1598441 17.7696212,29.126081 C17.2944388,29.018035 16.8229145,28.8935972 16.3514303,28.769919 C16.263974,28.7469705 16.2232944,28.7623428 16.1865527,28.84808 C15.862095,29.6054413 15.5329795,30.3607836 15.2054033,31.1168256 C15.1529295,31.237945 15.1534293,31.2378051 15.2852234,31.2710285 C16.6625747,31.6181549 18.039926,31.9653413 19.4171374,32.3129475 C19.4443838,32.3198041 19.4702909,32.331918 19.4996962,32.3426527 C19.2024448,33.5390345 18.9076522,34.7254213 18.6104808,35.9214033 C19.3470525,36.1043118 20.065953,36.2828226 20.7869925,36.4618531 C20.8010455,36.4134173 20.8102809,36.3850915 20.8174773,36.3562659 C21.0965177,35.2406237 21.3762179,34.1251414 21.6523798,33.0087596 C21.6709905,32.9334973 21.6984368,32.922063 21.767962,32.9404138 C22.2683518,33.0726277 22.7692214,33.2030625 23.2709505,33.330079 C23.35209,33.3506287 23.3662629,33.3809335 23.3458331,33.4621729 C23.0670525,34.5704188 22.7931494,35.679924 22.5146887,36.7882499 C22.4954383,36.8649315 22.5068526,36.8930175 22.585933,36.9122079 C23.0626947,37.0278701 23.5381569,37.1489095 24.014099,37.2678901 C24.2287516,37.3215432 24.4435642,37.3745567 24.6727896,37.4314283 C24.9721,36.2327276 25.2688716,35.0441219 25.564064,33.8617731 C25.9549685,33.9206837 26.3282219,33.9782149 26.7018951,34.0329875 C27.3242239,34.1241619 27.9492514,34.1662609 28.5789365,34.1543468 C29.0524598,34.1453913 29.519926,34.0983548 29.9808556,33.9912484 C30.9615052,33.7633423 31.775918,33.2730875 32.3862729,32.4616732 C32.7848536,31.9317781 33.056078,31.3388946 33.2534193,30.709949 C33.4770275,29.9973053 33.6113403,29.2741269 33.5052534,28.5226827 C33.4184168,27.9076502 33.1742989,27.363942 32.7768776,26.8881 C32.4092214,26.4478801 31.9573473,26.1116082 31.463934,25.8268506 C31.3911904,25.7848516 31.318067,25.7435122 31.2304308,25.6934973 C31.2882619,25.6784448 31.3262229,25.6690095 31.363944,25.6586947 C32.1896512,25.4323278 32.8707506,24.9981849 33.340056,24.2678501 C33.7351584,23.6530375 33.9151284,22.9679 33.9858531,22.2475002 C34.0329095,21.7682199 33.9930295,21.2988346 33.8492214,20.8394043 C33.6130395,20.0846217 33.1368976,19.5021329 32.5281219,19.0177951 C31.8550385,18.4823028 31.0916202,18.1097491 30.2974773,17.7945467 C30.0790665,17.7078701 29.8578371,17.6282499 29.6349485,17.5442719 C29.6445037,17.5023928 29.65198,17.4669505 29.6607156,17.4318081 C29.9367376,16.322083 30.2118001,15.2121379 30.4910605,14.1032324 C30.51195,14.0202739 30.4931994,13.9937071 30.4142189,13.9743568 C29.7641839,13.8151164 29.1150085,13.6523378 28.4656532,13.4903988 C28.3315802,13.4569755 28.3312004,13.4564158 28.2990365,13.5855912 C28.0706707,14.5027526 27.8426847,15.420034 27.6141589,16.3371754 C27.5671824,16.5257411 27.5184868,16.7138871 27.4696712,16.9057911 C26.8970375,16.7711984 26.3369575,16.6395642 25.7725397,16.5068906 C25.7771574,16.4797441 25.7787966,16.4638121 25.7826147,16.4484398 C26.0558181,15.3534873 26.3291214,14.2585547 26.6026647,13.1636822 C26.6353283,13.0328076 26.6361879,13.0321279 26.5132094,13.0015632 C25.8630745,12.839964 25.2123198,12.6808836 24.5632244,12.5152264 C24.4723898,12.492038 24.4424848,12.5116082 24.4208356,12.5997041 C24.182055,13.5715582 23.9398161,14.5425927 23.698097,15.5137471 C23.6552584,15.6857811 23.6104608,15.8573353 23.5629245,16.0433023 C22.1088316,15.6793243 20.6684118,15.3187646 19.220056,14.9562259 M24.6405271,0.0127376312 L25.3407582,0.0127376312 C25.3807679,0.0215448413 25.4204522,0.0363569674 25.4607621,0.0382835446 C25.8889328,0.0584500541 26.317829,0.067707633 26.745274,0.0976821719 C27.2134793,0.130534066 27.6839115,0.158982356 28.1470374,0.230465877 C28.9386226,0.352640897 29.7312837,0.479719931 30.5128853,0.652636491 C32.8844882,1.17736607 35.1268792,2.04805386 37.2434113,3.23987957 C39.8062797,4.68303602 42.0476449,6.51971464 43.9614515,8.75341828 C46.0162301,11.1516316 47.5600415,13.8436855 48.599266,16.8265024 C49.2752262,18.7666908 49.6985426,20.7608483 49.8849039,22.8048466 C49.936974,23.3760643 49.9438549,23.9514103 49.9731553,24.5247797 C49.9765082,24.5903333 49.9906454,24.6553616 49.9998034,24.720615 L49.9998034,25.3208064 C49.9911208,25.3693711 49.9771337,25.4176356 49.9745565,25.4665507 C49.946257,26.0066929 49.9326702,26.547986 49.8890325,27.0868772 C49.8451445,27.6289209 49.7863936,28.1707145 49.7084261,28.70888 C49.5504144,29.7993728 49.3167121,30.8751034 49.0079948,31.9329695 C47.8415101,35.9299416 45.8206108,39.4339602 42.9221268,42.4256094 C40.5242012,44.9006106 37.7264044,46.7931349 34.54435,48.1133157 C32.6235873,48.9101931 30.6343154,49.4707019 28.5711795,49.7446762 C27.7397348,49.8550666 26.9024601,49.9308036 26.0654856,49.9865242 C25.5097796,50.0235045 24.9490192,50.0169491 24.391987,49.9940053 C23.6487186,49.9634303 22.9032233,49.9282265 22.1653596,49.8395038 C21.3419719,49.7404978 20.5200604,49.6082645 19.7080825,49.4395264 C17.6292331,49.0074727 15.6446402,48.2959152 13.7490994,47.3393821 C10.8463117,45.8745329 8.322402,43.919082 6.18027275,41.4729295 C4.36978057,39.405537 2.94211977,37.0992989 1.89166048,34.5605205 C0.919894314,32.2119228 0.321576404,29.7695484 0.0976325565,27.2388266 C0.0323760699,26.501548 -0.00370516237,25.7589651 -0.000196646168,25.0191094 C0.00407657357,24.2419481 0.047188892,23.4628103 0.118900967,22.6888016 C0.188561265,21.9371113 0.287747122,21.185596 0.42376486,20.4430882 C0.803218318,18.3720177 1.44229651,16.3805873 2.33526948,14.4724002 C4.0347906,10.840652 6.46266719,7.78567603 9.62067579,5.3164796 C12.216723,3.28669289 15.1093769,1.83608033 18.2828489,0.94767803 C19.2516374,0.676455991 20.2323113,0.456200677 21.2297497,0.320239371 C21.8428304,0.236645936 22.4572873,0.158381864 23.0734206,0.10326174 C23.5414257,0.0613774507 24.013084,0.0603265904 24.4829908,0.0392093025 C24.5357865,0.0368323566 24.5880067,0.0218450871 24.6405271,0.0127376312" id="Fill-3"></path>
                </g>
                <path d="M25.3853493,33.2966557 C25.4376432,33.0829825 25.4878381,32.873987 25.539972,32.6654913 C25.8707266,31.3429725 26.2028406,30.0207536 26.5309965,28.6975952 C26.5544248,28.6030025 26.5823708,28.5783748 26.68398,28.602083 C27.4948546,28.7914083 28.3102669,28.9626027 29.1022309,29.2250715 C29.8083978,29.4591144 30.4945147,29.7361159 31.096014,30.1864108 C31.4894373,30.4809635 31.8148346,30.8335472 31.9708166,31.3107886 C32.2643498,32.2088596 31.8809015,33.3967456 30.7952844,33.7895092 C30.2828006,33.9749365 29.7549245,34.0182349 29.2169535,34.0096592 C28.4797021,33.997905 27.7569835,33.8785447 27.0413413,33.714067 C26.517903,33.5937671 25.9984028,33.4564158 25.4772634,33.3262609 C25.4489375,33.3191844 25.4215312,33.3084298 25.3853493,33.2966557" id="Fill-6" fill="#EA973D"></path>
                <path d="M27.1128836,26.3718341 C27.4695652,24.9404698 27.8235482,23.5199 28.1797501,22.0903348 C28.5651574,22.1795102 28.93991,22.2631084 29.3130435,22.3532634 C29.9858471,22.5158421 30.6464368,22.7150825 31.2662669,23.0306647 C31.676042,23.2393003 32.0556122,23.4896952 32.3434483,23.855992 C32.7953623,24.4309845 32.8302449,25.0662069 32.5873263,25.7302549 C32.3712344,26.3210195 31.9270565,26.665987 31.3352724,26.8309245 C30.8824588,26.9571014 30.4191304,26.9696752 29.9515042,26.9409495 C29.0476562,26.8853773 28.1789705,26.6552524 27.3096052,26.425967 C27.2465167,26.4093353 27.1837681,26.3913843 27.1128836,26.3718341" id="Fill-8" fill="#EA973D"></path>
                <g id="Group-2-Copy">
                    <circle id="Oval" stroke="#090F16" stroke-width="2" fill="#0072FF" cx="10" cy="10" r="11"></circle>
                    <g id="Group" transform="translate(4.000000, 5.000000)" fill="#FFFFFF">
                        <path d="M2.92486583,8 L2.92486583,7.04680851 C3.59868813,6.9787234 4.1129994,6.78439716 4.46779964,6.46382979 C4.82259988,6.14326241 5,5.75319149 5,5.29361702 C5,4.9248227 4.90310078,4.62836879 4.70930233,4.40425532 C4.51550388,4.18014184 4.27698271,4.01134752 3.99373882,3.89787234 C3.71049493,3.78439716 3.35420394,3.67943262 2.92486583,3.58297872 L2.92486583,3.58297872 L2.92486583,1.86382979 C3.43768634,1.92056738 3.92069171,2.07375887 4.37388193,2.32340426 L4.37388193,2.32340426 L4.74060823,1.46382979 C4.50208706,1.31631206 4.22331544,1.19716312 3.90429338,1.10638298 C3.58527132,1.01560284 3.25879547,0.961702128 2.92486583,0.944680851 L2.92486583,0.944680851 L2.92486583,0 L2.19141324,0 L2.19141324,0.961702128 C1.52355397,1.02411348 1.01371497,1.21702128 0.661896243,1.54042553 C0.310077519,1.86382979 0.134168157,2.25531915 0.134168157,2.71489362 C0.134168157,3.08368794 0.229576625,3.38014184 0.42039356,3.60425532 C0.611210495,3.82836879 0.848240906,3.99858156 1.13148479,4.11489362 C1.41472868,4.23120567 1.76803816,4.33758865 2.19141324,4.43404255 L2.19141324,4.43404255 L2.19141324,6.13617021 C1.85152057,6.10780142 1.52355397,6.03546099 1.20751342,5.91914894 C0.891472868,5.80283688 0.623136553,5.65957447 0.402504472,5.4893617 L0.402504472,5.4893617 L0,6.34893617 C0.23255814,6.54184397 0.545617174,6.70070922 0.939177102,6.82553191 C1.33273703,6.95035461 1.75014908,7.02695035 2.19141324,7.05531915 L2.19141324,7.05531915 L2.19141324,8 L2.92486583,8 Z M2.19141324,3.40425532 C1.89922481,3.3248227 1.67561121,3.22836879 1.52057245,3.11489362 C1.36553369,3.00141844 1.28801431,2.85106383 1.28801431,2.66382979 C1.28801431,2.46524823 1.36255218,2.29787234 1.51162791,2.16170213 C1.66070364,2.02553191 1.88729875,1.93475177 2.19141324,1.8893617 L2.19141324,1.8893617 L2.19141324,3.40425532 Z M2.92486583,6.11914894 L2.92486583,4.61276596 C3.22301729,4.69219858 3.45259392,4.79007092 3.61359571,4.90638298 C3.7745975,5.02269504 3.85509839,5.17730496 3.85509839,5.37021277 C3.85509839,5.56312057 3.77906977,5.7248227 3.62701252,5.85531915 C3.47495528,5.9858156 3.24090638,6.07375887 2.92486583,6.11914894 L2.92486583,6.11914894 Z" id="$1" fill-rule="nonzero"></path>
                        <polygon id="Path" points="9.65 10 9.65 0 5.48 0 5.48 1.635 7.7 1.635 7.7 10"></polygon>
                    </g>
                </g>
            </g>
        </g>
    </g>
</svg>