<?xml version="1.0" encoding="UTF-8"?>
<svg width="55px" height="55px" viewBox="0 0 55 55" version="1.1" xmlns="http://www.w3.org/2000/svg" xmlns:xlink="http://www.w3.org/1999/xlink">
    <title>0D570C09-19CC-488B-95AF-9B6DEDC1E1C7</title>
    <g id="Site" stroke="none" stroke-width="1" fill="none" fill-rule="evenodd">
        <g id="Assets" transform="translate(-1531.000000, -169.000000)">
            <g id="coin_dai" transform="translate(1533.000000, 171.000000)">
                <path d="M28.778906,29.40416 C31.265466,29.40416 33.752046,29.40418 36.238606,29.40412 C36.291926,29.40412 36.345326,29.40492 36.398566,29.4026 C36.525106,29.39708 36.566046,29.36024 36.576886,29.23582 C36.642146,28.48714 36.642646,27.7378 36.589906,26.98864 C36.568306,26.68148 36.544206,26.66624 36.229886,26.66624 C31.266746,26.66622 26.303586,26.66624 21.340466,26.66626 C21.300466,26.66626 21.260406,26.66538 21.220486,26.66714 C21.049086,26.67476 21.002746,26.72124 20.996366,26.89102 C20.9951259,26.9243 20.9951259,26.95766 20.9951259,26.991 C20.9951259,27.68764 20.9951259,28.38428 20.995286,29.08092 C20.995406,29.40402 20.995846,29.40414 21.319186,29.40414 C23.805766,29.40418 26.292326,29.40416 28.778906,29.40416 M28.140746,32.01994 C25.874426,32.01994 23.608106,32.01992 21.341806,32.02004 C21.275146,32.02004 21.208486,32.02098 21.141846,32.02244 C21.053266,32.0244 21.006886,32.07174 21.001846,32.15878 C20.998006,32.2253 20.995466,32.29198 20.995446,32.35856 C20.9951746,33.75168 20.9951746,35.1448 20.9951746,36.5379 C20.9951746,36.57458 20.9951746,36.61124 20.996186,36.6479 C21.001026,36.80674 21.027466,36.83434 21.183366,36.83984 C21.253286,36.8423 21.323306,36.84232 21.393286,36.84234 C23.432966,36.84246 25.472666,36.84234 27.512346,36.84258 C27.698726,36.8426 27.886406,36.85908 28.071246,36.84276 C28.425886,36.8114 28.779006,36.7627 29.132606,36.71994 C30.269146,36.58252 31.340206,36.2222 32.350886,35.70192 C33.565826,35.07648 34.537146,34.1645 35.289526,33.0239 C35.452506,32.77686 35.596346,32.51646 35.736986,32.25572 C35.832246,32.07912 35.787546,32.0147 35.588686,32.00428 C35.568726,32.00322 35.548686,32.0023 35.528726,32.00286 C35.325706,32.00836 35.122686,32.01908 34.919686,32.01918 C32.660046,32.02038 30.400386,32.01994 28.140746,32.01994 M28.390326,24.1571731 C30.773186,24.1571731 33.156026,24.15734 35.538906,24.15616 C35.597626,24.15612 35.657026,24.14416 35.714606,24.13108 C35.732346,24.12706 35.759946,24.09802 35.7577456,24.08504 C35.741386,23.9952 35.735266,23.89804 35.695126,23.81886 C35.192686,22.82818 34.517926,21.97254 33.653866,21.27304 C32.023646,19.9533 30.161466,19.2656 28.058986,19.26012 C25.809426,19.25424 23.559866,19.25878 21.310306,19.2588 C21.003746,19.2588 20.995306,19.26682 20.9951384,19.57226 C20.9951384,20.99864 20.9951384,22.42502 20.9951384,23.8514 C20.9951384,24.15622 20.996226,24.15712 21.301726,24.1571731 C23.664586,24.1571731 26.027466,24.1571731 28.390326,24.1571731 M23.528946,16.87088 C24.978846,16.87086 26.428966,16.85452 27.878586,16.87446 C30.423826,16.90946 32.771346,17.60236 34.858786,19.08204 C36.532406,20.26838 37.753166,21.82248 38.518426,23.72964 C38.534526,23.76978 38.548626,23.81078 38.562626,23.85174 C38.615366,24.00632 38.722426,24.08256 38.885966,24.08238 C39.645906,24.08152 40.405846,24.08066 41.165786,24.08018 C41.443346,24.08 41.464106,24.09726 41.464966,24.37194 C41.467106,25.04854 41.466646,25.72518 41.465086,26.40178 C41.464586,26.60572 41.407466,26.66362 41.201926,26.66456 C40.645306,26.6671 40.088686,26.66592 39.532046,26.66626 C39.492066,26.66628 39.451986,26.6652 39.412086,26.66734 C39.288686,26.67398 39.255686,26.70302 39.259106,26.82542 C39.264226,27.0085 39.286786,27.19138 39.286106,27.37428 C39.284126,27.91698 39.274606,28.45964 39.267426,29.00232 C39.266366,29.08224 39.258866,29.16216 39.259766,29.24206 C39.261246,29.37458 39.283766,29.39586 39.419486,29.40212 C39.472726,29.40458 39.526126,29.40406 39.579446,29.40408 C40.172726,29.4043 40.766026,29.40392 41.359326,29.40474 C41.480046,29.4049 41.509426,29.4427 41.502706,29.5624 C41.488566,29.81416 41.470946,30.06604 41.467626,30.31802 C41.461906,30.75124 41.466146,31.1846 41.465866,31.61792 C41.465826,31.67122 41.466426,31.72474 41.461966,31.7778 C41.451266,31.90544 41.395666,31.96288 41.267806,31.97756 C41.221666,31.98286 41.174646,31.98148 41.128006,31.98144 C40.354746,31.98098 39.581466,31.98018 38.808206,31.97958 C38.659866,31.97946 38.555686,32.04516 38.504666,32.1791 C37.812446,33.99684 36.662426,35.46868 35.135446,36.6601 C33.924046,37.60532 32.558286,38.22958 31.087006,38.64178 C30.197806,38.8909 29.291226,39.03392 28.370306,39.08296 C27.937966,39.10602 27.504526,39.1179 27.071586,39.11838 C24.268446,39.12142 21.465286,39.12 18.662146,39.11976 C18.451846,39.11976 18.471546,39.132 18.471506,38.93208 C18.471086,36.71222 18.471266,34.49236 18.471206,32.27252 C18.471186,32.00614 18.468826,32.00382 18.205306,32.0038 C17.328686,32.00374 16.452086,32.00384 15.575486,32.0037 C15.377086,32.00366 15.343086,31.97256 15.342686,31.77168 C15.341266,31.0284 15.343386,30.28512 15.3403827,29.54184 C15.340006,29.44584 15.372046,29.41644 15.467306,29.41674 C16.390566,29.41958 17.313846,29.41854 18.237126,29.41818 C18.439526,29.41812 18.469406,29.39254 18.469966,29.18838 C18.471986,28.41178 18.471466,27.63516 18.470206,26.85854 C18.469966,26.70844 18.440946,26.68248 18.283586,26.68234 C17.390326,26.68154 16.497046,26.6818 15.603786,26.68144 C15.560506,26.68142 15.516966,26.68148 15.474026,26.67708 C15.406706,26.67018 15.362466,26.6344 15.354186,26.56434 C15.348326,26.51484 15.342526,26.46494 15.342466,26.41522 C15.341706,25.71526 15.341666,25.0153 15.342086,24.31536 C15.342206,24.1193 15.364906,24.09652 15.560046,24.09644 C16.436666,24.09606 17.313266,24.09626 18.189866,24.09616 C18.229866,24.09616 18.269866,24.09572 18.309826,24.09468 C18.403886,24.09222 18.460826,24.05062 18.463206,23.95004 C18.464946,23.8768 18.470886,23.80362 18.470906,23.7304 C18.471326,21.54722 18.471206,19.36404 18.471306,17.18084 C18.471326,16.88306 18.481926,16.87126 18.779266,16.87116 C20.362486,16.87066 21.945706,16.87092 23.528946,16.87088" id="Fill-4" stroke="#FFFFFF" stroke-width="0.909090909" fill="#FFFFFF"></path>
                <g id="Group-3" transform="translate(3.000000, 3.000000)" fill="#F6AC38">
                    <path d="M25.625006,8e-06 C25.707506,0.008308 25.789831,0.018708 25.872531,0.024608 C26.503681,0.069658 27.136881,0.094983 27.765681,0.162033 C29.221931,0.317308 30.652556,0.608333 32.057281,1.024858 C35.837156,2.145683 39.172881,4.046933 42.057081,6.733658 C44.369481,8.887733 46.204031,11.396533 47.561906,14.250083 C48.967131,17.203083 49.764831,20.313708 49.949906,23.580133 C49.964906,23.845183 49.983231,24.110033 50.000006,24.375008 L50.000006,25.625008 C49.992156,25.686108 49.979006,25.747058 49.977306,25.808383 C49.947981,26.862983 49.841956,27.909958 49.676356,28.951683 C49.333881,31.106358 48.721731,33.181633 47.827606,35.170833 C45.875206,39.514483 42.930431,43.031683 38.990456,45.707283 C36.298406,47.535383 33.352406,48.775933 30.168981,49.451333 C28.920481,49.716233 27.659331,49.886333 26.384331,49.951833 C26.122756,49.965258 25.861431,49.983808 25.600006,50.000008 L24.400006,50.000008 C24.334106,49.992308 24.268381,49.981133 24.202281,49.977483 C23.869681,49.959183 23.536681,49.947558 23.204406,49.925008 C21.742681,49.825758 20.301481,49.593858 18.882456,49.231333 C14.748056,48.175083 11.101906,46.209558 7.981831,43.298508 C4.333156,39.894233 1.918981,35.754658 0.717731,30.910283 C0.382331,29.557608 0.168731,28.185058 0.074081,26.794408 C0.047531,26.404733 0.024581,26.014808 6.00000021e-06,25.625008 L6.00000021e-06,24.375008 C0.007681,24.313683 0.018106,24.252583 0.022681,24.191033 C0.073806,23.502008 0.106981,22.811108 0.178156,22.124183 C0.316556,20.787858 0.587306,19.475633 0.955181,18.183733 C1.859506,15.007983 3.328606,12.119208 5.374531,9.527183 C7.706231,6.573058 10.562756,4.262758 13.934281,2.591408 C15.956806,1.588758 18.079431,0.879808 20.296281,0.454158 C21.385206,0.245058 22.483056,0.106358 23.590856,0.049008 C23.852381,0.035458 24.113631,0.016483 24.375006,8e-06 L25.625006,8e-06 Z M23.428826,13.8646747 L20.528946,13.870928 L20.528946,13.870928 C18.945706,13.870928 17.362486,13.870668 15.779266,13.871168 C15.51166,13.871258 15.4763134,13.8808088 15.4719056,14.0998143 L15.471306,14.180848 C15.471206,16.364028 15.471326,18.547208 15.470906,20.730408 C15.470886,20.803608 15.464946,20.876808 15.463206,20.950048 C15.460826,21.050628 15.403886,21.092228 15.309826,21.094668 L15.189866,21.096168 L15.189866,21.096168 L12.560046,21.096428 L12.560046,21.096428 C12.364906,21.096528 12.342206,21.119288 12.342086,21.315348 C12.341666,22.015308 12.341706,22.715248 12.342466,23.415208 C12.342526,23.464928 12.348326,23.514828 12.354186,23.564328 C12.362466,23.634408 12.406706,23.670188 12.474026,23.677088 C12.516966,23.681488 12.560506,23.681408 12.603786,23.681428 C13.497046,23.681788 14.390326,23.681548 15.283586,23.682328 C15.440946,23.682468 15.469966,23.708448 15.470206,23.858548 C15.471466,24.635148 15.471986,25.411768 15.469966,26.188388 C15.469406,26.392548 15.439526,26.418128 15.237126,26.418188 C14.313846,26.418528 13.390566,26.419568 12.467306,26.416748 C12.372046,26.416448 12.340006,26.445848 12.3403827,26.541828 C12.343386,27.285108 12.341266,28.028408 12.342706,28.771688 C12.343086,28.972568 12.377086,29.003648 12.575486,29.003688 L15.205306,29.003808 L15.205306,29.003808 C15.468826,29.003828 15.471186,29.006128 15.471206,29.272528 L15.4713512,36.036382 C15.4733542,36.1012237 15.4863956,36.1159783 15.5532875,36.1191163 L15.662146,36.119768 L15.662146,36.119768 C18.465286,36.120008 21.268446,36.121428 24.071586,36.118388 C24.504526,36.117908 24.937966,36.106008 25.370306,36.082968 C26.291226,36.033928 27.197806,35.890908 28.087006,35.641768 C29.558286,35.229568 30.924046,34.605308 32.135446,33.660088 C33.662426,32.468668 34.812446,30.996828 35.504666,29.179108 C35.555686,29.045148 35.659866,28.979448 35.808206,28.979568 C36.581466,28.980168 37.354746,28.980968 38.128006,28.981448 C38.174646,28.981488 38.221666,28.982848 38.267806,28.977568 C38.395666,28.962868 38.451266,28.905448 38.461966,28.777788 C38.466426,28.724748 38.465826,28.671208 38.465866,28.617908 C38.466146,28.184608 38.461906,27.751248 38.467626,27.318028 C38.470946,27.066028 38.488566,26.814168 38.502706,26.562408 C38.509426,26.442688 38.480046,26.404908 38.359346,26.404748 L36.579446,26.404088 C36.526126,26.404068 36.472726,26.404588 36.419486,26.402128 C36.283766,26.395868 36.261246,26.374588 36.259766,26.242048 C36.258866,26.162168 36.266366,26.082248 36.267426,26.002328 C36.274606,25.459648 36.284126,24.916968 36.286106,24.374288 C36.286786,24.191368 36.264226,24.008488 36.259106,23.825428 C36.255686,23.703028 36.288686,23.673968 36.412086,23.667348 L36.472036,23.666013 L36.472036,23.666013 L36.532046,23.666268 C37.088686,23.665928 37.645306,23.667108 38.201926,23.664568 C38.407466,23.663628 38.464586,23.605728 38.465086,23.401788 C38.466646,22.725168 38.467106,22.048548 38.464966,21.371928 C38.464106,21.097248 38.443346,21.080008 38.165786,21.080188 L35.885966,21.082388 L35.885966,21.082388 C35.722426,21.082568 35.615366,21.006328 35.562626,20.851748 C35.548626,20.810788 35.534526,20.769788 35.518426,20.729648 C34.753166,18.822488 33.532406,17.268388 31.858786,16.082048 C29.771346,14.602348 27.423826,13.909468 24.878586,13.874468 L23.428826,13.8646747 L23.428826,13.8646747 Z M32.588682,29.004282 C32.787542,29.014702 32.832242,29.079122 32.736982,29.255722 C32.596342,29.516462 32.452502,29.776862 32.289522,30.023902 C31.537142,31.164502 30.565822,32.076482 29.350882,32.701922 C28.340222,33.222202 27.269142,33.582522 26.132602,33.719942 C25.779002,33.762702 25.425882,33.811402 25.071242,33.842762 C24.886402,33.859082 24.698722,33.842602 24.512342,33.842582 L18.393282,33.842342 L18.393282,33.842342 C18.323302,33.842322 18.253282,33.842302 18.183362,33.839842 C18.027462,33.834342 18.001042,33.806742 17.996182,33.647882 L17.9953089,33.5928995 L17.9953089,33.5928995 L17.995442,29.358562 L17.995442,29.358562 C17.995462,29.291982 17.998002,29.225302 18.001862,29.158782 C18.006902,29.071742 18.053262,29.024402 18.141862,29.022442 C18.208482,29.020982 18.275142,29.020042 18.341802,29.020042 L21.741272,29.019947 L21.741272,29.019947 L31.919682,29.019182 L31.919682,29.019182 C32.122702,29.019082 32.325702,29.008362 32.528722,29.002862 C32.548682,29.002302 32.568722,29.003222 32.588682,29.004282 Z M33.589906,23.98864 C33.642646,24.7378 33.642146,25.48714 33.576886,26.23582 C33.566046,26.36024 33.525106,26.39708 33.398566,26.4026 L33.318616,26.40423 L33.318616,26.40423 L18.319186,26.40414 L18.319186,26.40414 C18.0252405,26.40414 17.9981546,26.4040408 17.995569,26.161273 L17.9951259,23.991 C17.9951259,23.95766 17.9951259,23.9243 17.996366,23.89102 C18.002746,23.72124 18.049086,23.67476 18.220486,23.66714 L18.280446,23.66604 L18.280446,23.66604 L33.229886,23.66624 C33.544206,23.66624 33.568306,23.68148 33.589906,23.98864 Z M25.058992,16.260108 C27.161472,16.265588 29.023652,16.953288 30.653872,18.273028 C31.517932,18.972548 32.192692,19.828188 32.695112,20.818868 C32.735272,20.898048 32.741392,20.995208 32.7577317,21.085048 C32.759932,21.098028 32.732352,21.127048 32.714612,21.131088 C32.657032,21.144168 32.597612,21.156128 32.538912,21.156148 L28.9646145,21.1571128 L28.9646145,21.1571128 L18.301712,21.1571776 L18.301712,21.1571776 C18.02678,21.157133 17.9983937,21.1563833 17.9954657,20.9340346 L17.9951294,16.572248 C17.995312,16.266808 18.003752,16.258808 18.310312,16.258808 C20.559872,16.258788 22.809432,16.254248 25.058992,16.260108 Z" id="Combined-Shape"></path>
                </g>
                <g id="Group-2-Copy-5">
                    <circle id="Oval" stroke="#090F16" stroke-width="2" fill="#0072FF" cx="10" cy="10" r="11"></circle>
                    <g id="Group" transform="translate(4.000000, 5.000000)" fill="#FFFFFF">
                        <path d="M2.92486583,8 L2.92486583,7.04680851 C3.59868813,6.9787234 4.1129994,6.78439716 4.46779964,6.46382979 C4.82259988,6.14326241 5,5.75319149 5,5.29361702 C5,4.9248227 4.90310078,4.62836879 4.70930233,4.40425532 C4.51550388,4.18014184 4.27698271,4.01134752 3.99373882,3.89787234 C3.71049493,3.78439716 3.35420394,3.67943262 2.92486583,3.58297872 L2.92486583,3.58297872 L2.92486583,1.86382979 C3.43768634,1.92056738 3.92069171,2.07375887 4.37388193,2.32340426 L4.37388193,2.32340426 L4.74060823,1.46382979 C4.50208706,1.31631206 4.22331544,1.19716312 3.90429338,1.10638298 C3.58527132,1.01560284 3.25879547,0.961702128 2.92486583,0.944680851 L2.92486583,0.944680851 L2.92486583,0 L2.19141324,0 L2.19141324,0.961702128 C1.52355397,1.02411348 1.01371497,1.21702128 0.661896243,1.54042553 C0.310077519,1.86382979 0.134168157,2.25531915 0.134168157,2.71489362 C0.134168157,3.08368794 0.229576625,3.38014184 0.42039356,3.60425532 C0.611210495,3.82836879 0.848240906,3.99858156 1.13148479,4.11489362 C1.41472868,4.23120567 1.76803816,4.33758865 2.19141324,4.43404255 L2.19141324,4.43404255 L2.19141324,6.13617021 C1.85152057,6.10780142 1.52355397,6.03546099 1.20751342,5.91914894 C0.891472868,5.80283688 0.623136553,5.65957447 0.402504472,5.4893617 L0.402504472,5.4893617 L0,6.34893617 C0.23255814,6.54184397 0.545617174,6.70070922 0.939177102,6.82553191 C1.33273703,6.95035461 1.75014908,7.02695035 2.19141324,7.05531915 L2.19141324,7.05531915 L2.19141324,8 L2.92486583,8 Z M2.19141324,3.40425532 C1.89922481,3.3248227 1.67561121,3.22836879 1.52057245,3.11489362 C1.36553369,3.00141844 1.28801431,2.85106383 1.28801431,2.66382979 C1.28801431,2.46524823 1.36255218,2.29787234 1.51162791,2.16170213 C1.66070364,2.02553191 1.88729875,1.93475177 2.19141324,1.8893617 L2.19141324,1.8893617 L2.19141324,3.40425532 Z M2.92486583,6.11914894 L2.92486583,4.61276596 C3.22301729,4.69219858 3.45259392,4.79007092 3.61359571,4.90638298 C3.7745975,5.02269504 3.85509839,5.17730496 3.85509839,5.37021277 C3.85509839,5.56312057 3.77906977,5.7248227 3.62701252,5.85531915 C3.47495528,5.9858156 3.24090638,6.07375887 2.92486583,6.11914894 L2.92486583,6.11914894 Z" id="$1" fill-rule="nonzero"></path>
                        <polygon id="Path" points="9.65 10 9.65 0 5.48 0 5.48 1.635 7.7 1.635 7.7 10"></polygon>
                    </g>
                </g>
            </g>
        </g>
    </g>
</svg>