<?xml version="1.0" encoding="UTF-8"?>
<svg width="55px" height="55px" viewBox="0 0 55 55" version="1.1" xmlns="http://www.w3.org/2000/svg" xmlns:xlink="http://www.w3.org/1999/xlink">
    <title>169ED01F-C617-4FFE-8AE6-D49E4BF73889</title>
    <g id="Site" stroke="none" stroke-width="1" fill="none" fill-rule="evenodd">
        <g id="Assets" transform="translate(-1385.000000, -169.000000)">
            <g id="coin_hedera" transform="translate(1387.000000, 171.000000)">
                <circle id="Oval" fill="#222222" cx="28" cy="28" r="25"></circle>
                <path d="M37,37.1666667 C37,37.626904 36.626904,38 36.1666667,38 L36.1333333,38 C35.673096,38 35.3,37.626904 35.3,37.1666667 L35.3,31.333 L21.7,31.333 L21.7,37.1666667 C21.7,37.626904 21.326904,38 20.8666667,38 L20.8333333,38 C20.373096,38 20,37.626904 20,37.1666667 L20,18.8333333 C20,18.373096 20.373096,18 20.8333333,18 L20.8666667,18 C21.326904,18 21.7,18.373096 21.7,18.8333333 L21.7,24.666 L35.3,24.666 L35.3,18.8333333 C35.3,18.373096 35.673096,18 36.1333333,18 L36.1666667,18 C36.626904,18 37,18.373096 37,18.8333333 L37,37.1666667 Z M35.3,29.666 L35.3,26.333 L21.7,26.333 L21.7,29.666 L35.3,29.666 Z" id="Combined-Shape" fill="#FFFFFF"></path>
                <g id="Group-2-Copy-3">
                    <circle id="Oval" stroke="#090F16" stroke-width="2" fill="#0072FF" cx="10" cy="10" r="11"></circle>
                    <g id="Group" transform="translate(4.000000, 5.000000)" fill="#FFFFFF">
                        <path d="M2.92486583,8 L2.92486583,7.04680851 C3.59868813,6.9787234 4.1129994,6.78439716 4.46779964,6.46382979 C4.82259988,6.14326241 5,5.75319149 5,5.29361702 C5,4.9248227 4.90310078,4.62836879 4.70930233,4.40425532 C4.51550388,4.18014184 4.27698271,4.01134752 3.99373882,3.89787234 C3.71049493,3.78439716 3.35420394,3.67943262 2.92486583,3.58297872 L2.92486583,3.58297872 L2.92486583,1.86382979 C3.43768634,1.92056738 3.92069171,2.07375887 4.37388193,2.32340426 L4.37388193,2.32340426 L4.74060823,1.46382979 C4.50208706,1.31631206 4.22331544,1.19716312 3.90429338,1.10638298 C3.58527132,1.01560284 3.25879547,0.961702128 2.92486583,0.944680851 L2.92486583,0.944680851 L2.92486583,0 L2.19141324,0 L2.19141324,0.961702128 C1.52355397,1.02411348 1.01371497,1.21702128 0.661896243,1.54042553 C0.310077519,1.86382979 0.134168157,2.25531915 0.134168157,2.71489362 C0.134168157,3.08368794 0.229576625,3.38014184 0.42039356,3.60425532 C0.611210495,3.82836879 0.848240906,3.99858156 1.13148479,4.11489362 C1.41472868,4.23120567 1.76803816,4.33758865 2.19141324,4.43404255 L2.19141324,4.43404255 L2.19141324,6.13617021 C1.85152057,6.10780142 1.52355397,6.03546099 1.20751342,5.91914894 C0.891472868,5.80283688 0.623136553,5.65957447 0.402504472,5.4893617 L0.402504472,5.4893617 L0,6.34893617 C0.23255814,6.54184397 0.545617174,6.70070922 0.939177102,6.82553191 C1.33273703,6.95035461 1.75014908,7.02695035 2.19141324,7.05531915 L2.19141324,7.05531915 L2.19141324,8 L2.92486583,8 Z M2.19141324,3.40425532 C1.89922481,3.3248227 1.67561121,3.22836879 1.52057245,3.11489362 C1.36553369,3.00141844 1.28801431,2.85106383 1.28801431,2.66382979 C1.28801431,2.46524823 1.36255218,2.29787234 1.51162791,2.16170213 C1.66070364,2.02553191 1.88729875,1.93475177 2.19141324,1.8893617 L2.19141324,1.8893617 L2.19141324,3.40425532 Z M2.92486583,6.11914894 L2.92486583,4.61276596 C3.22301729,4.69219858 3.45259392,4.79007092 3.61359571,4.90638298 C3.7745975,5.02269504 3.85509839,5.17730496 3.85509839,5.37021277 C3.85509839,5.56312057 3.77906977,5.7248227 3.62701252,5.85531915 C3.47495528,5.9858156 3.24090638,6.07375887 2.92486583,6.11914894 L2.92486583,6.11914894 Z" id="$1" fill-rule="nonzero"></path>
                        <polygon id="Path" points="9.65 10 9.65 0 5.48 0 5.48 1.635 7.7 1.635 7.7 10"></polygon>
                    </g>
                </g>
            </g>
        </g>
    </g>
</svg>