<?xml version="1.0" encoding="UTF-8"?>
<svg width="55px" height="55px" viewBox="0 0 55 55" version="1.1" xmlns="http://www.w3.org/2000/svg" xmlns:xlink="http://www.w3.org/1999/xlink">
    <title>612999E3-1586-48E4-929F-157EDD6189F8</title>
    <g id="Site" stroke="none" stroke-width="1" fill="none" fill-rule="evenodd">
        <g id="Assets" transform="translate(-1166.000000, -169.000000)">
            <g id="coin_chainlink" transform="translate(1168.000000, 171.000000)">
                <circle id="Oval" fill="#3B5ECA" cx="28" cy="28" r="25"></circle>
                <path d="M22.4442415,28.0023342 C22.4442415,29.1263452 22.4450826,30.2503875 22.4426014,31.3743985 C22.4424017,31.4610931 22.4680645,31.5122951 22.5464092,31.556102 C22.9215006,31.7658507 23.2929965,31.9819291 23.6655963,32.1960752 C25.2165412,33.0875044 26.7670446,33.9796962 28.3187254,34.8698616 C28.5650401,35.0111633 28.4720085,35.0120929 28.7261345,34.8668952 C29.590754,34.3729031 30.4530921,33.8749942 31.3165026,33.3789131 C32.3707599,32.7731582 33.4246177,32.166693 34.4806413,31.5639776 C34.5719803,31.511846 34.6027526,31.451588 34.6026159,31.348223 C34.5997668,29.1175713 34.5995986,26.88693 34.6030055,24.6562887 C34.6031731,24.5460926 34.5644318,24.4871194 34.4714527,24.4354473 C34.1446907,24.2538065 33.8221129,24.0647496 33.4978845,23.8786174 C32.5828015,23.3532482 31.6676343,22.8280252 30.7526039,22.3025516 C30.0375668,21.8919117 29.3221092,21.4819612 28.6087016,21.0685429 C28.5411015,21.0293737 28.4905012,21.0331652 28.4264966,21.0700888 C27.5670391,21.5659714 26.7065934,22.0601618 25.8462949,22.5546135 C25.0102188,23.0351313 24.1740377,23.5154611 23.3379091,23.995864 C23.068276,24.1507757 22.7995365,24.3072229 22.528379,24.4594502 C22.4654152,24.4947965 22.4341593,24.5375589 22.4437579,24.6094423 C22.4469644,24.6333825 22.4442415,24.6580957 22.4442415,24.6824538 C22.444231,25.7890736 22.444231,26.8957039 22.4442415,28.0023342 M18,34.0066342 L18,21.9980342 C18.0380895,21.9807789 18.0777664,21.9663228 18.1139635,21.9457981 C18.354128,21.8096249 18.5936933,21.6724072 18.8331744,21.5350642 C19.9487239,20.8952686 21.064326,20.2555879 22.1796127,19.615364 C23.2858265,18.9803523 24.3913569,18.3441812 25.4978125,17.7095872 C26.4769422,17.1480152 27.4572599,16.58848 28.4358008,16.0258948 C28.4996162,15.989201 28.5477879,15.9926897 28.6090906,16.0288612 C28.8227407,16.1549339 29.0396814,16.2754707 29.2549295,16.3988591 C30.2372027,16.9619561 31.2194759,17.5250531 32.2014652,18.088641 C33.3046722,18.721804 34.4073535,19.3558965 35.5107077,19.9888297 C36.6383264,20.6356758 37.7660503,21.2823652 38.8953616,21.9262553 C38.9727075,21.9703651 38.9995689,22.0203555 38.9995268,22.1076663 C38.9975503,26.0371977 38.9974452,29.9667291 39,33.8962709 C39,33.9907262 38.9653167,34.0382516 38.8867513,34.0830299 C37.9577067,34.6125562 37.0292403,35.1430958 36.1032445,35.6778551 C34.947261,36.3454452 33.7947469,37.0189786 32.6388371,37.6867254 C31.3226318,38.4470578 30.003977,39.2032122 28.6878453,39.9636908 C28.6086385,40.0094718 28.5474935,40.0137334 28.4671198,39.9663126 C28.1511443,39.7798879 27.8315102,39.599584 27.5127383,39.4178596 C25.8399554,38.4642714 24.1668571,37.5112263 22.4941794,36.5574501 C21.134176,35.7819513 19.7747718,35.0053872 18.4145897,34.2302018 C18.2782224,34.15249 18.1382912,34.0810035 18,34.0066342" id="Fill-1" fill="#FFFFFF"></path>
                <g id="Group-2">
                    <circle id="Oval" stroke="#090F16" stroke-width="2" fill="#0072FF" cx="10" cy="10" r="11"></circle>
                    <g id="Group" transform="translate(4.000000, 5.000000)" fill="#FFFFFF">
                        <path d="M2.92486583,8 L2.92486583,7.04680851 C3.59868813,6.9787234 4.1129994,6.78439716 4.46779964,6.46382979 C4.82259988,6.14326241 5,5.75319149 5,5.29361702 C5,4.9248227 4.90310078,4.62836879 4.70930233,4.40425532 C4.51550388,4.18014184 4.27698271,4.01134752 3.99373882,3.89787234 C3.71049493,3.78439716 3.35420394,3.67943262 2.92486583,3.58297872 L2.92486583,3.58297872 L2.92486583,1.86382979 C3.43768634,1.92056738 3.92069171,2.07375887 4.37388193,2.32340426 L4.37388193,2.32340426 L4.74060823,1.46382979 C4.50208706,1.31631206 4.22331544,1.19716312 3.90429338,1.10638298 C3.58527132,1.01560284 3.25879547,0.961702128 2.92486583,0.944680851 L2.92486583,0.944680851 L2.92486583,0 L2.19141324,0 L2.19141324,0.961702128 C1.52355397,1.02411348 1.01371497,1.21702128 0.661896243,1.54042553 C0.310077519,1.86382979 0.134168157,2.25531915 0.134168157,2.71489362 C0.134168157,3.08368794 0.229576625,3.38014184 0.42039356,3.60425532 C0.611210495,3.82836879 0.848240906,3.99858156 1.13148479,4.11489362 C1.41472868,4.23120567 1.76803816,4.33758865 2.19141324,4.43404255 L2.19141324,4.43404255 L2.19141324,6.13617021 C1.85152057,6.10780142 1.52355397,6.03546099 1.20751342,5.91914894 C0.891472868,5.80283688 0.623136553,5.65957447 0.402504472,5.4893617 L0.402504472,5.4893617 L0,6.34893617 C0.23255814,6.54184397 0.545617174,6.70070922 0.939177102,6.82553191 C1.33273703,6.95035461 1.75014908,7.02695035 2.19141324,7.05531915 L2.19141324,7.05531915 L2.19141324,8 L2.92486583,8 Z M2.19141324,3.40425532 C1.89922481,3.3248227 1.67561121,3.22836879 1.52057245,3.11489362 C1.36553369,3.00141844 1.28801431,2.85106383 1.28801431,2.66382979 C1.28801431,2.46524823 1.36255218,2.29787234 1.51162791,2.16170213 C1.66070364,2.02553191 1.88729875,1.93475177 2.19141324,1.8893617 L2.19141324,1.8893617 L2.19141324,3.40425532 Z M2.92486583,6.11914894 L2.92486583,4.61276596 C3.22301729,4.69219858 3.45259392,4.79007092 3.61359571,4.90638298 C3.7745975,5.02269504 3.85509839,5.17730496 3.85509839,5.37021277 C3.85509839,5.56312057 3.77906977,5.7248227 3.62701252,5.85531915 C3.47495528,5.9858156 3.24090638,6.07375887 2.92486583,6.11914894 L2.92486583,6.11914894 Z" id="$1" fill-rule="nonzero"></path>
                        <polygon id="Path" points="9.65 10 9.65 0 5.48 0 5.48 1.635 7.7 1.635 7.7 10"></polygon>
                    </g>
                </g>
            </g>
        </g>
    </g>
</svg>