<?xml version="1.0" encoding="UTF-8"?>
<svg width="55px" height="55px" viewBox="0 0 55 55" version="1.1" xmlns="http://www.w3.org/2000/svg" xmlns:xlink="http://www.w3.org/1999/xlink">
    <title>4568E06F-7518-436E-872E-42F468D4DF12</title>
    <g id="Site" stroke="none" stroke-width="1" fill="none" fill-rule="evenodd">
        <g id="Assets" transform="translate(-1312.000000, -169.000000)">
            <g id="coin_maker" transform="translate(1314.000000, 171.000000)">
                <circle id="Oval" fill="#00BD9A" cx="28" cy="28" r="25"></circle>
                <g id="Group-7" transform="translate(17.000000, 21.000000)" fill="#FFFFFF" stroke="#FFFFFF" stroke-width="1.04761905">
                    <g id="Group-3" transform="translate(12.269934, 0.003167)">
                        <path d="M9.04825352,13.615103 C9.03617045,13.6535366 9.02734363,13.6933994 9.011444,13.7301927 C8.93173471,13.9146706 8.71104001,14.0361997 8.52187661,14.0017532 C8.2965858,13.9607292 8.13587608,13.7890245 8.12261556,13.5734051 C8.1196354,13.5249104 8.12091029,13.4761233 8.12091029,13.4274744 C8.12084533,9.46965143 8.12085345,5.51183662 8.12085345,1.55401368 L8.12085345,1.43118537 C8.07602915,1.42520067 8.05559025,1.45492113 8.03157027,1.47289145 C7.6808364,1.73530847 7.33076839,1.99860249 6.98061918,2.26179094 C5.35955501,3.48024848 3.73850707,4.6987385 2.11746726,5.91721229 C1.75219797,6.19178546 1.38791936,6.46770661 1.02070119,6.73964067 C0.959920421,6.78464362 0.937029172,6.83183093 0.937102255,6.90764246 C0.939148582,9.08390264 0.938750685,11.2601628 0.938718204,13.436423 C0.938718204,13.4769679 0.939359711,13.5175533 0.937906169,13.5580657 C0.928973792,13.8070679 0.721328488,14.0074049 0.472894699,14.0072994 C0.228724091,14.0071857 0.0213792403,13.8098613 0.00862218072,13.5650167 C0.00707931546,13.5353531 0.0074487349,13.5055596 0.0074487349,13.475831 C0.0074487349,11.1941282 0.00730668507,8.91244158 0.00825676526,6.63075499 C0.00828112629,6.56647435 0.0130640086,6.5005128 0.0280054406,6.43831909 C0.0542991129,6.3288325 0.125051666,6.24849794 0.214651536,6.18144826 C0.656300778,5.85098276 1.09682129,5.51902312 1.53770722,5.18754258 C3.42010029,3.77225603 5.30249335,2.35695325 7.18487018,0.94165046 C7.5220106,0.688165817 7.86012546,0.435939828 8.19562557,0.180303295 C8.29764957,0.102559126 8.40163869,0.0326754502 8.52896567,0.00493635681 L8.64256116,0.00493635681 C8.66572038,0.0117899267 8.68881463,0.0188221442 8.71203882,0.0254808258 C8.84694208,0.0641417812 8.94692787,0.145223411 9.00634442,0.272712804 C9.02435535,0.311349398 9.03450578,0.353640147 9.04825352,0.394258105 L9.04825352,13.615103 Z" id="Fill-1"></path>
                    </g>
                    <g id="Group-6" transform="translate(0.000000, 0.019408)">
                        <path d="M0.914071337,1.40327169 C0.912893887,1.44006496 0.910693274,1.47685824 0.910693274,1.5136434 C0.910522747,3.27909539 0.910538988,5.04454739 0.910538988,6.80999939 C0.910538988,9.00804645 0.910547108,11.2060935 0.910514627,13.4041406 C0.910514627,13.4501017 0.911221097,13.4961035 0.909548306,13.5420078 C0.900973223,13.7774896 0.711476887,13.9631288 0.476173694,13.9736933 C0.290299032,13.9820329 0.151619806,13.908016 0.0565305832,13.750189 C0.022530705,13.6937851 0.00264398384,13.6323303 0.00178322743,13.5656786 C0.0011985627,13.5197174 0.000159158732,13.4737644 0.000159158732,13.4278195 C-1.57909444e-06,9.13175176 -1.57909444e-06,4.83569216 0.000118557015,0.539632554 C0.000118557015,0.501783633 -0.000482348403,0.463894111 0.00100367446,0.426093912 C0.00998477436,0.196353154 0.194178526,0.0157323535 0.423756877,0.0039740961 C0.555915467,-0.00279015002 0.666595749,0.0423833208 0.769155687,0.119875759 C1.05391989,0.335056741 1.33927688,0.54945005 1.62469884,0.763762155 C2.46150023,1.39210621 3.29851276,2.02019042 4.13532228,2.64851824 C5.22080107,3.463549 6.30619054,4.27870968 7.3915719,5.09385412 C7.8607491,5.44621206 8.32969082,5.7988867 8.79911975,6.15088735 C8.86014414,6.19664549 8.9174088,6.24500213 8.95753142,6.31131286 C8.99749163,6.37734749 9.02354169,6.44727989 9.0247029,6.52524331 C9.02529568,6.56578006 9.02606766,6.60633306 9.02606766,6.64687793 C9.02606766,8.90711058 9.02606766,11.1673432 9.02606766,13.4275759 C9.02606766,13.4627207 9.0263026,13.4978818 9.02531192,13.5330104 C9.01897805,13.757611 8.85507704,13.9444195 8.64248645,13.9697631 C8.3963426,13.99911 8.1882588,13.8640281 8.12843622,13.6347258 C8.12101423,13.6062884 8.11839136,13.5761538 8.11707586,13.5466445 C8.11503766,13.5007564 8.11577661,13.4547384 8.11577661,13.4087773 C8.11573601,11.2485873 8.11576849,9.08838913 8.11567917,6.92819099 C8.11567104,6.75763942 8.12501756,6.79210215 7.99767433,6.69630646 C7.30406707,6.17450131 6.60951785,5.65394669 5.91548022,5.13270996 C5.04415924,4.47833208 4.17301691,3.82371059 3.30181774,3.1691703 C2.54086847,2.59745752 1.77997604,2.02568789 1.01897805,1.45404007 C0.991385128,1.43331696 0.962963925,1.41368197 0.934924379,1.39354351 C0.927973365,1.39678353 0.921022351,1.40003167 0.914071337,1.40327169" id="Fill-4"></path>
                    </g>
                </g>
                <g id="Group-2-Copy-2">
                    <circle id="Oval" stroke="#090F16" stroke-width="2" fill="#0072FF" cx="10" cy="10" r="11"></circle>
                    <g id="Group" transform="translate(4.000000, 5.000000)" fill="#FFFFFF">
                        <path d="M2.92486583,8 L2.92486583,7.04680851 C3.59868813,6.9787234 4.1129994,6.78439716 4.46779964,6.46382979 C4.82259988,6.14326241 5,5.75319149 5,5.29361702 C5,4.9248227 4.90310078,4.62836879 4.70930233,4.40425532 C4.51550388,4.18014184 4.27698271,4.01134752 3.99373882,3.89787234 C3.71049493,3.78439716 3.35420394,3.67943262 2.92486583,3.58297872 L2.92486583,3.58297872 L2.92486583,1.86382979 C3.43768634,1.92056738 3.92069171,2.07375887 4.37388193,2.32340426 L4.37388193,2.32340426 L4.74060823,1.46382979 C4.50208706,1.31631206 4.22331544,1.19716312 3.90429338,1.10638298 C3.58527132,1.01560284 3.25879547,0.961702128 2.92486583,0.944680851 L2.92486583,0.944680851 L2.92486583,0 L2.19141324,0 L2.19141324,0.961702128 C1.52355397,1.02411348 1.01371497,1.21702128 0.661896243,1.54042553 C0.310077519,1.86382979 0.134168157,2.25531915 0.134168157,2.71489362 C0.134168157,3.08368794 0.229576625,3.38014184 0.42039356,3.60425532 C0.611210495,3.82836879 0.848240906,3.99858156 1.13148479,4.11489362 C1.41472868,4.23120567 1.76803816,4.33758865 2.19141324,4.43404255 L2.19141324,4.43404255 L2.19141324,6.13617021 C1.85152057,6.10780142 1.52355397,6.03546099 1.20751342,5.91914894 C0.891472868,5.80283688 0.623136553,5.65957447 0.402504472,5.4893617 L0.402504472,5.4893617 L0,6.34893617 C0.23255814,6.54184397 0.545617174,6.70070922 0.939177102,6.82553191 C1.33273703,6.95035461 1.75014908,7.02695035 2.19141324,7.05531915 L2.19141324,7.05531915 L2.19141324,8 L2.92486583,8 Z M2.19141324,3.40425532 C1.89922481,3.3248227 1.67561121,3.22836879 1.52057245,3.11489362 C1.36553369,3.00141844 1.28801431,2.85106383 1.28801431,2.66382979 C1.28801431,2.46524823 1.36255218,2.29787234 1.51162791,2.16170213 C1.66070364,2.02553191 1.88729875,1.93475177 2.19141324,1.8893617 L2.19141324,1.8893617 L2.19141324,3.40425532 Z M2.92486583,6.11914894 L2.92486583,4.61276596 C3.22301729,4.69219858 3.45259392,4.79007092 3.61359571,4.90638298 C3.7745975,5.02269504 3.85509839,5.17730496 3.85509839,5.37021277 C3.85509839,5.56312057 3.77906977,5.7248227 3.62701252,5.85531915 C3.47495528,5.9858156 3.24090638,6.07375887 2.92486583,6.11914894 L2.92486583,6.11914894 Z" id="$1" fill-rule="nonzero"></path>
                        <polygon id="Path" points="9.65 10 9.65 0 5.48 0 5.48 1.635 7.7 1.635 7.7 10"></polygon>
                    </g>
                </g>
            </g>
        </g>
    </g>
</svg>